<mxfile host="65bd71144e">
    <diagram id="HIP3nbAZw_EuaXWnEj3U" name="Page-1">
        <mxGraphModel dx="1085" dy="743" grid="1" gridSize="10" guides="1" tooltips="1" connect="1" arrows="1" fold="1" page="1" pageScale="1" pageWidth="850" pageHeight="1100" math="0" shadow="0">
            <root>
                <mxCell id="0"/>
                <mxCell id="1" parent="0"/>
                <mxCell id="7" value="&lt;span style=&quot;font-weight: 400;&quot;&gt;&lt;br&gt;&lt;/span&gt;https://ic2so.com" style="swimlane;whiteSpace=wrap;html=1;startSize=23;" parent="1" vertex="1">
                    <mxGeometry x="45" y="60" width="760" height="430" as="geometry"/>
                </mxCell>
                <mxCell id="8" value="Farenheit to celsius with JS" style="text;html=1;align=center;verticalAlign=middle;resizable=0;points=[];autosize=1;strokeColor=none;fillColor=none;" vertex="1" parent="7">
                    <mxGeometry x="20" y="90" width="170" height="30" as="geometry"/>
                </mxCell>
                <mxCell id="10" value="&lt;span style=&quot;&quot;&gt;C = (T°F − 32) × 5/9&lt;/span&gt;" style="text;html=1;align=center;verticalAlign=middle;resizable=0;points=[];autosize=1;strokeColor=none;fillColor=none;" vertex="1" parent="7">
                    <mxGeometry x="40" y="130" width="130" height="30" as="geometry"/>
                </mxCell>
                <mxCell id="11" value="&lt;b&gt;input temperature in Farenheit&lt;/b&gt;" style="text;html=1;align=center;verticalAlign=middle;resizable=0;points=[];autosize=1;strokeColor=none;fillColor=none;" vertex="1" parent="7">
                    <mxGeometry x="5" y="225" width="200" height="30" as="geometry"/>
                </mxCell>
                <mxCell id="14" value="Enter here" style="rounded=1;whiteSpace=wrap;html=1;absoluteArcSize=1;arcSize=14;strokeWidth=2;" vertex="1" parent="7">
                    <mxGeometry x="200" y="230" width="100" height="20" as="geometry"/>
                </mxCell>
                <mxCell id="15" value="Calculate" style="rounded=1;whiteSpace=wrap;html=1;absoluteArcSize=1;arcSize=14;strokeWidth=2;fillColor=#fa6800;fontColor=#000000;strokeColor=#C73500;" vertex="1" parent="7">
                    <mxGeometry x="20" y="280" width="100" height="20" as="geometry"/>
                </mxCell>
                <mxCell id="16" value="Output:" style="text;html=1;align=center;verticalAlign=middle;resizable=0;points=[];autosize=1;strokeColor=none;fillColor=none;" vertex="1" parent="7">
                    <mxGeometry x="15" y="320" width="60" height="30" as="geometry"/>
                </mxCell>
                <mxCell id="17" value="" style="shape=image;imageAspect=0;aspect=fixed;verticalLabelPosition=bottom;verticalAlign=top;image=data:image/jpeg,/9j/4AAQSkZJRgABAQEBLAEsAAD/4QC9RXhpZgAASUkqAAgAAAACAA4BAgCPAAAAJgAAABIBAwABAAAAAQAAAAAAAABDbGFzc2ljIG91dGRvb3IgYW5kIGluZG9vciBjZWxzaXVzIGZhaHJlbmhlaXQgYWxjb2hvbCBldGhhbm9sIHJlZCBkeWUgdGhlcm1vbWV0ZXIgZm9yIG1ldGVvcm9sb2dpY2FsIG1lYXN1cmVtZW50cyByZWFsaXN0aWMgdmVjdG9yIGlsbHVzdHJhdGlvbv/hBbJodHRwOi8vbnMuYWRvYmUuY29tL3hhcC8xLjAvADw/eHBhY2tldCBiZWdpbj0i77u/IiBpZD0iVzVNME1wQ2VoaUh6cmVTek5UY3prYzlkIj8+Cjx4OnhtcG1ldGEgeG1sbnM6eD0iYWRvYmU6bnM6bWV0YS8iPgoJPHJkZjpSREYgeG1sbnM6cmRmPSJodHRwOi8vd3d3LnczLm9yZy8xOTk5LzAyLzIyLXJkZi1zeW50YXgtbnMjIj4KCQk8cmRmOkRlc2NyaXB0aW9uIHJkZjphYm91dD0iIiB4bWxuczpwaG90b3Nob3A9Imh0dHA6Ly9ucy5hZG9iZS5jb20vcGhvdG9zaG9wLzEuMC8iIHhtbG5zOklwdGM0eG1wQ29yZT0iaHR0cDovL2lwdGMub3JnL3N0ZC9JcHRjNHhtcENvcmUvMS4wL3htbG5zLyIgICB4bWxuczpHZXR0eUltYWdlc0dJRlQ9Imh0dHA6Ly94bXAuZ2V0dHlpbWFnZXMuY29tL2dpZnQvMS4wLyIgeG1sbnM6ZGM9Imh0dHA6Ly9wdXJsLm9yZy9kYy9lbGVtZW50cy8xLjEvIiB4bWxuczpwbHVzPSJodHRwOi8vbnMudXNlcGx1cy5vcmcvbGRmL3htcC8xLjAvIiAgeG1sbnM6aXB0Y0V4dD0iaHR0cDovL2lwdGMub3JnL3N0ZC9JcHRjNHhtcEV4dC8yMDA4LTAyLTI5LyIgeG1sbnM6eG1wUmlnaHRzPSJodHRwOi8vbnMuYWRvYmUuY29tL3hhcC8xLjAvcmlnaHRzLyIgcGhvdG9zaG9wOkNyZWRpdD0iR2V0dHkgSW1hZ2VzL2lTdG9ja3Bob3RvIiBHZXR0eUltYWdlc0dJRlQ6QXNzZXRJRD0iMTIwMTE5NDcxNCIgeG1wUmlnaHRzOldlYlN0YXRlbWVudD0iaHR0cHM6Ly93d3cuaXN0b2NrcGhvdG8uY29tL2xlZ2FsL2xpY2Vuc2UtYWdyZWVtZW50P3V0bV9tZWRpdW09b3JnYW5pYyZhbXA7dXRtX3NvdXJjZT1nb29nbGUmYW1wO3V0bV9jYW1wYWlnbj1pcHRjdXJsIiA+CjxkYzpjcmVhdG9yPjxyZGY6U2VxPjxyZGY6bGk+TWFjcm92ZWN0b3I8L3JkZjpsaT48L3JkZjpTZXE+PC9kYzpjcmVhdG9yPjxkYzpkZXNjcmlwdGlvbj48cmRmOkFsdD48cmRmOmxpIHhtbDpsYW5nPSJ4LWRlZmF1bHQiPkNsYXNzaWMgb3V0ZG9vciBhbmQgaW5kb29yIGNlbHNpdXMgZmFocmVuaGVpdCBhbGNvaG9sIGV0aGFub2wgcmVkIGR5ZSB0aGVybW9tZXRlciBmb3IgbWV0ZW9yb2xvZ2ljYWwgbWVhc3VyZW1lbnRzIHJlYWxpc3RpYyB2ZWN0b3IgaWxsdXN0cmF0aW9uPC9yZGY6bGk+PC9yZGY6QWx0PjwvZGM6ZGVzY3JpcHRpb24+CjxwbHVzOkxpY2Vuc29yPjxyZGY6U2VxPjxyZGY6bGkgcmRmOnBhcnNlVHlwZT0nUmVzb3VyY2UnPjxwbHVzOkxpY2Vuc29yVVJMPmh0dHBzOi8vd3d3LmlzdG9ja3Bob3RvLmNvbS9waG90by9saWNlbnNlLWdtMTIwMTE5NDcxNC0/dXRtX21lZGl1bT1vcmdhbmljJmFtcDt1dG1fc291cmNlPWdvb2dsZSZhbXA7dXRtX2NhbXBhaWduPWlwdGN1cmw8L3BsdXM6TGljZW5zb3JVUkw+PC9yZGY6bGk+PC9yZGY6U2VxPjwvcGx1czpMaWNlbnNvcj4KCQk8L3JkZjpEZXNjcmlwdGlvbj4KCTwvcmRmOlJERj4KPC94OnhtcG1ldGE+Cjw/eHBhY2tldCBlbmQ9InciPz4K/+IMWElDQ19QUk9GSUxFAAEBAAAMSExpbm8CEAAAbW50clJHQiBYWVogB84AAgAJAAYAMQAAYWNzcE1TRlQAAAAASUVDIHNSR0IAAAAAAAAAAAAAAAAAAPbWAAEAAAAA0y1IUCAgAAAAAAAAAAAAAAAAAAAAAAAAAAAAAAAAAAAAAAAAAAAAAAAAAAAAAAAAAAAAAAARY3BydAAAAVAAAAAzZGVzYwAAAYQAAABsd3RwdAAAAfAAAAAUYmtwdAAAAgQAAAAUclhZWgAAAhgAAAAUZ1hZWgAAAiwAAAAUYlhZWgAAAkAAAAAUZG1uZAAAAlQAAABwZG1kZAAAAsQAAACIdnVlZAAAA0wAAACGdmlldwAAA9QAAAAkbHVtaQAAA/gAAAAUbWVhcwAABAwAAAAkdGVjaAAABDAAAAAMclRSQwAABDwAAAgMZ1RSQwAABDwAAAgMYlRSQwAABDwAAAgMdGV4dAAAAABDb3B5cmlnaHQgKGMpIDE5OTggSGV3bGV0dC1QYWNrYXJkIENvbXBhbnkAAGRlc2MAAAAAAAAAEnNSR0IgSUVDNjE5NjYtMi4xAAAAAAAAAAAAAAASc1JHQiBJRUM2MTk2Ni0yLjEAAAAAAAAAAAAAAAAAAAAAAAAAAAAAAAAAAAAAAAAAAAAAAAAAAAAAAAAAAAAAAAAAAFhZWiAAAAAAAADzUQABAAAAARbMWFlaIAAAAAAAAAAAAAAAAAAAAABYWVogAAAAAAAAb6IAADj1AAADkFhZWiAAAAAAAABimQAAt4UAABjaWFlaIAAAAAAAACSgAAAPhAAAts9kZXNjAAAAAAAAABZJRUMgaHR0cDovL3d3dy5pZWMuY2gAAAAAAAAAAAAAABZJRUMgaHR0cDovL3d3dy5pZWMuY2gAAAAAAAAAAAAAAAAAAAAAAAAAAAAAAAAAAAAAAAAAAAAAAAAAAAAAAAAAAAAAZGVzYwAAAAAAAAAuSUVDIDYxOTY2LTIuMSBEZWZhdWx0IFJHQiBjb2xvdXIgc3BhY2UgLSBzUkdCAAAAAAAAAAAAAAAuSUVDIDYxOTY2LTIuMSBEZWZhdWx0IFJHQiBjb2xvdXIgc3BhY2UgLSBzUkdCAAAAAAAAAAAAAAAAAAAAAAAAAAAAAGRlc2MAAAAAAAAALFJlZmVyZW5jZSBWaWV3aW5nIENvbmRpdGlvbiBpbiBJRUM2MTk2Ni0yLjEAAAAAAAAAAAAAACxSZWZlcmVuY2UgVmlld2luZyBDb25kaXRpb24gaW4gSUVDNjE5NjYtMi4xAAAAAAAAAAAAAAAAAAAAAAAAAAAAAAAAAAB2aWV3AAAAAAATpP4AFF8uABDPFAAD7cwABBMLAANcngAAAAFYWVogAAAAAABMCVYAUAAAAFcf521lYXMAAAAAAAAAAQAAAAAAAAAAAAAAAAAAAAAAAAKPAAAAAnNpZyAAAAAAQ1JUIGN1cnYAAAAAAAAEAAAAAAUACgAPABQAGQAeACMAKAAtADIANwA7AEAARQBKAE8AVABZAF4AYwBoAG0AcgB3AHwAgQCGAIsAkACVAJoAnwCkAKkArgCyALcAvADBAMYAywDQANUA2wDgAOUA6wDwAPYA+wEBAQcBDQETARkBHwElASsBMgE4AT4BRQFMAVIBWQFgAWcBbgF1AXwBgwGLAZIBmgGhAakBsQG5AcEByQHRAdkB4QHpAfIB+gIDAgwCFAIdAiYCLwI4AkECSwJUAl0CZwJxAnoChAKOApgCogKsArYCwQLLAtUC4ALrAvUDAAMLAxYDIQMtAzgDQwNPA1oDZgNyA34DigOWA6IDrgO6A8cD0wPgA+wD+QQGBBMEIAQtBDsESARVBGMEcQR+BIwEmgSoBLYExATTBOEE8AT+BQ0FHAUrBToFSQVYBWcFdwWGBZYFpgW1BcUF1QXlBfYGBgYWBicGNwZIBlkGagZ7BowGnQavBsAG0QbjBvUHBwcZBysHPQdPB2EHdAeGB5kHrAe/B9IH5Qf4CAsIHwgyCEYIWghuCIIIlgiqCL4I0gjnCPsJEAklCToJTwlkCXkJjwmkCboJzwnlCfsKEQonCj0KVApqCoEKmAquCsUK3ArzCwsLIgs5C1ELaQuAC5gLsAvIC+EL+QwSDCoMQwxcDHUMjgynDMAM2QzzDQ0NJg1ADVoNdA2ODakNww3eDfgOEw4uDkkOZA5/DpsOtg7SDu4PCQ8lD0EPXg96D5YPsw/PD+wQCRAmEEMQYRB+EJsQuRDXEPURExExEU8RbRGMEaoRyRHoEgcSJhJFEmQShBKjEsMS4xMDEyMTQxNjE4MTpBPFE+UUBhQnFEkUahSLFK0UzhTwFRIVNBVWFXgVmxW9FeAWAxYmFkkWbBaPFrIW1hb6Fx0XQRdlF4kXrhfSF/cYGxhAGGUYihivGNUY+hkgGUUZaxmRGbcZ3RoEGioaURp3Gp4axRrsGxQbOxtjG4obshvaHAIcKhxSHHscoxzMHPUdHh1HHXAdmR3DHeweFh5AHmoelB6+HukfEx8+H2kflB+/H+ogFSBBIGwgmCDEIPAhHCFIIXUhoSHOIfsiJyJVIoIiryLdIwojOCNmI5QjwiPwJB8kTSR8JKsk2iUJJTglaCWXJccl9yYnJlcmhya3JugnGCdJJ3onqyfcKA0oPyhxKKIo1CkGKTgpaymdKdAqAio1KmgqmyrPKwIrNitpK50r0SwFLDksbiyiLNctDC1BLXYtqy3hLhYuTC6CLrcu7i8kL1ovkS/HL/4wNTBsMKQw2zESMUoxgjG6MfIyKjJjMpsy1DMNM0YzfzO4M/E0KzRlNJ402DUTNU01hzXCNf02NzZyNq426TckN2A3nDfXOBQ4UDiMOMg5BTlCOX85vDn5OjY6dDqyOu87LTtrO6o76DwnPGU8pDzjPSI9YT2hPeA+ID5gPqA+4D8hP2E/oj/iQCNAZECmQOdBKUFqQaxB7kIwQnJCtUL3QzpDfUPARANER0SKRM5FEkVVRZpF3kYiRmdGq0bwRzVHe0fASAVIS0iRSNdJHUljSalJ8Eo3Sn1KxEsMS1NLmkviTCpMcky6TQJNSk2TTdxOJU5uTrdPAE9JT5NP3VAnUHFQu1EGUVBRm1HmUjFSfFLHUxNTX1OqU/ZUQlSPVNtVKFV1VcJWD1ZcVqlW91dEV5JX4FgvWH1Yy1kaWWlZuFoHWlZaplr1W0VblVvlXDVchlzWXSddeF3JXhpebF69Xw9fYV+zYAVgV2CqYPxhT2GiYfViSWKcYvBjQ2OXY+tkQGSUZOllPWWSZedmPWaSZuhnPWeTZ+loP2iWaOxpQ2maafFqSGqfavdrT2una/9sV2yvbQhtYG25bhJua27Ebx5veG/RcCtwhnDgcTpxlXHwcktypnMBc11zuHQUdHB0zHUodYV14XY+dpt2+HdWd7N4EXhueMx5KnmJeed6RnqlewR7Y3vCfCF8gXzhfUF9oX4BfmJ+wn8jf4R/5YBHgKiBCoFrgc2CMIKSgvSDV4O6hB2EgITjhUeFq4YOhnKG14c7h5+IBIhpiM6JM4mZif6KZIrKizCLlov8jGOMyo0xjZiN/45mjs6PNo+ekAaQbpDWkT+RqJIRknqS45NNk7aUIJSKlPSVX5XJljSWn5cKl3WX4JhMmLiZJJmQmfyaaJrVm0Kbr5wcnImc951kndKeQJ6unx2fi5/6oGmg2KFHobaiJqKWowajdqPmpFakx6U4pammGqaLpv2nbqfgqFKoxKk3qamqHKqPqwKrdavprFys0K1ErbiuLa6hrxavi7AAsHWw6rFgsdayS7LCszizrrQltJy1E7WKtgG2ebbwt2i34LhZuNG5SrnCuju6tbsuu6e8IbybvRW9j74KvoS+/796v/XAcMDswWfB48JfwtvDWMPUxFHEzsVLxcjGRsbDx0HHv8g9yLzJOsm5yjjKt8s2y7bMNcy1zTXNtc42zrbPN8+40DnQutE80b7SP9LB00TTxtRJ1MvVTtXR1lXW2Ndc1+DYZNjo2WzZ8dp22vvbgNwF3IrdEN2W3hzeot8p36/gNuC94UThzOJT4tvjY+Pr5HPk/OWE5g3mlucf56noMui86Ubp0Opb6uXrcOv77IbtEe2c7ijutO9A78zwWPDl8XLx//KM8xnzp/Q09ML1UPXe9m32+/eK+Bn4qPk4+cf6V/rn+3f8B/yY/Sn9uv5L/tz/bf///+0A3lBob3Rvc2hvcCAzLjAAOEJJTQQEAAAAAADBHAJQAAtNYWNyb3ZlY3RvchwCeACPQ2xhc3NpYyBvdXRkb29yIGFuZCBpbmRvb3IgY2Vsc2l1cyBmYWhyZW5oZWl0IGFsY29ob2wgZXRoYW5vbCByZWQgZHllIHRoZXJtb21ldGVyIGZvciBtZXRlb3JvbG9naWNhbCBtZWFzdXJlbWVudHMgcmVhbGlzdGljIHZlY3RvciBpbGx1c3RyYXRpb24cAm4AGEdldHR5IEltYWdlcy9pU3RvY2twaG90bwD/2wBDAAIBAQEBAQIBAQECAgICAgQDAgICAgUEBAMEBgUGBgYFBgYGBwkIBgcJBwYGCAsICQoKCgoKBggLDAsKDAkKCgr/2wBDAQICAgICAgUDAwUKBwYHCgoKCgoKCgoKCgoKCgoKCgoKCgoKCgoKCgoKCgoKCgoKCgoKCgoKCgoKCgoKCgoKCgr/wAARCALEAPQDAREAAhEBAxEB/8QAHwAAAQUBAQEBAQEAAAAAAAAAAAECAwQFBgcICQoL/8QAtRAAAgEDAwIEAwUFBAQAAAF9AQIDAAQRBRIhMUEGE1FhByJxFDKBkaEII0KxwRVS0fAkM2JyggkKFhcYGRolJicoKSo0NTY3ODk6Q0RFRkdISUpTVFVWV1hZWmNkZWZnaGlqc3R1dnd4eXqDhIWGh4iJipKTlJWWl5iZmqKjpKWmp6ipqrKztLW2t7i5usLDxMXGx8jJytLT1NXW19jZ2uHi4+Tl5ufo6erx8vP09fb3+Pn6/8QAHwEAAwEBAQEBAQEBAQAAAAAAAAECAwQFBgcICQoL/8QAtREAAgECBAQDBAcFBAQAAQJ3AAECAxEEBSExBhJBUQdhcRMiMoEIFEKRobHBCSMzUvAVYnLRChYkNOEl8RcYGRomJygpKjU2Nzg5OkNERUZHSElKU1RVVldYWVpjZGVmZ2hpanN0dXZ3eHl6goOEhYaHiImKkpOUlZaXmJmaoqOkpaanqKmqsrO0tba3uLm6wsPExcbHyMnK0tPU1dbX2Nna4uPk5ebn6Onq8vP09fb3+Pn6/9oADAMBAAIRAxEAPwD9/KACgAoAKACgAoAKACgAzjk0AQz39pbj95MPoKAKF14rsYPukH6mgDOufHaqf3WPwFAGRqfxa03TGKX+s21uR2nuFT+ZFAFFvjl4eHTxXp//AIHx/wDxVK6AB8b9Eb7viayP0vU/xougGr8dPDztsTxZp5PoNQj/APiqd0Bftfia15GJra7EiHo8bbgfxFAFmL4guT88/wCZoAu23jlX+9IDQBoW3iy3lxuI/CgC9Bq1pP0fFAFlXRxlGB+lAC0AFABQAUAFABQAUAFABQAUAFABQAUAFABQAEgDJoApX2uWlmD8wJoA5fxD8RbWxZIZrsK8xIghQFpJSOoRFyzn2UE0m0twPCPih+378FfBni+T4a2/ip9b8WKM/wDCHeE9PuNe1sDsx0/TUmmiX1Nx5AHdhU8zeyKt3OP8UfH39rjVLZb+1+Aej/D/AE24j32+q/HD4k2Ph4Tr2Mdhpy6jd54+5JNA2eMChtrdhZHC+IvF/wAULyzXUvH37cPh+zgb79v8O/gNc3YT2TUvEN3cwSD3Eag9cDOKhyh3HZ9jl7nx98KoQsP/AA2r+0JqMmf3kOl+KvBGiR59k062SQemD6+tF1/L+AXfcYnjn4VFzIfiX+0ncE9Zj+0Deru/CIbB/wAB9OO9O8v5Auu4j+NfhO3LeLf2kX9z+0RrI/8AQRTu/wCQLruNHxC+Fdsd3/DQf7S2jqrA5PxvtLkflqSEHHp09aV3/IF0tmX9P8aeDL+4T/hC/wBvj4qfaSflXxb4K8DeJY89gwsLVLlhn0cN75pc0VurBq+qOy034i/tHeHriO28P/tA/BDxkNmY7TxNa678O7w8fdQXLajbSMegAhRc01KDekhNd0dVN+1d8R/hjZpqH7Qv7M/xC8I6f5e8+IrXSYvE+ilB1la/0JppIIh133FnCMdcVfv+orI9J+FX7R3wy+Lnhn/hNPhn8QNG8QaOrbX1fQNWhvrSMjqHlgZvJOeNsojb/ZzxRzLqJqSPQNN8WB0WRJgVYAqwOQR6iqFc3tN8VdP3tAzesPEMU4AkYH3oA0o5o5RlGBoAdQAUAFABQAUAFABQAUAFABQAUAFAEV1dw2qb5W/CgDl/E/jq10+LdNPsDOEjVVLM7noqquS7HHCgEnsKTaSuwPm3x/8Atoan4q8Y6p8KP2Z/AOofEPxRpDlNdg0S+gg0zw+2M/8AE11ebda2BABY28YubspyIVIqbyexVktzxL4j6tod7CzftTftB3vjKTUXKD4efCjU7rQfDMpGR5E2pJu1fX2XjPlt5LDhrdBxU3jey1Y+nY0/Atz8e5/CifD/APZ++F+hfCbweW3RaV4d0lNDgJwBv+z2f+lSse7ST27N1ZO1Pkm93b0J5l0Vzo/Cf7FeoXl62q+MPHOsXV1PkzNprjTQ5PXMkP8ApMn/AG0neqVOC6A5SfU9B8M/sXfCXRrldRX4eaS11j5ry7slnnPuZZtzk+5Oaq+hNkdzpnwZ0HTYhFa28UIA4WNQo/8AHRQ22O1i/wD8Ku0oAYOfXLn/AAoFYU/DDSieg/7+H/CgdiKX4WaU67Q/sRuP+FAWOd8S/s1+BfE0Dwa34Y02/Rh8yXllFKp9sOKd2KyZ53rn7C3w5ton/wCEX0i60LePm/4R3UriwQ/70cLrE/0ZSKTUXugV1scPH+z3+0F8FrxtY+DHxUniYNuNtcp9haXHODLZKsT/AFmtps96z9nFfDoVzPqcZ488VeCtQ8XDxn+1T8B7jw54sVtsXxb8DXv/AAj2uI3ADNq1gVt7tB2hvlgjY9UbpRapHdXQ049ND0LwP46+P3hKNtQ+HPiFPjloMcP2i4sbS2tNC8d2EPLGSSwYx6draYwTNbm0lbonnE8pNP4WDXc9c+C37S3w1+M2i3OteBfFMd2unXf2TWLeW3ltbvSbodba/tJ1W40+cf8APKdFzkbWfrVqWtmS4tK56lpniErwX5qgvc6XSfER4/efrQB0VjqkVyMMwzQBboAKACgAoAKACgAoAKACgAoAq6lqcNhGSzfN6UAeQftAftI+APgn4N1Dxx8Q/FNrpenaeqG7vLtm2Rs52xxhUBeWaRiEigjDSyuQqr1ZZcraDSufLPxS8VeOvifp8njD9qPVdb+HHgaa18+0+Gdhq4sfFXiO0J4fWbyNwPD2nv8AKDaQOLmQYEs28PAYk1F66sa20M3w7onxO+M3hfTfhx8PPCGm/Dr4aaaoTRvD+jaKtrapHnO63sWXDEk7vtF2pJYllgUndT5G/j+4XNb4T2v4R/so+DvA0jarbaY0l/OoW81a+mae7uAOged8sVHZAQq9AoFaaJWQvU9X0vwno+lRhIbdTj2xQBpwokfEaBRj+EYoAkoAKAJKACgCM9TQAHoaAI6AILuxtLpds8CnPXjrQBzXiP4X6HrcMiC2T51IZWUcg9vQ0AfO/wARf2L38L3f/CQfBvUn8N3sFx9ohs4Vc6e0uc7/ACVZWtnJ5823aJ+5LDgqUYz3BNx2OM1rxHp/jnxxp9v+0dp+s+CviXZWptfDPxe8IeWNaSJRkQySCMQ69ZcfPZ3MXmBS7eSWxKIfND4tV3/zKTTeh6X4B/aC8Z/DPX9F+HX7RcWiQnxFMtv4H+IXhmUjwv4vkOdsEDSsW0nUTg5064co5VhbzPsZAK61WqBpN+Z9A6H4jjnQPE7cMVYOhVlYHBVgcFWB4KkAgjBFaJprQi/c6rR9d+78/wCNAzqdK1hZUCu2aANNWDDINAC0AFABQAUAFABQAUAVdT1KOwhLE/N2oA8G/af/AGofDHwR8NjUdUN/e6hfX8em6LouiWgudR1bUZQTDYWUB4mupACwDYjijBmlKxr80tu9kNI+YvEWpa58P/G2n/Fb46Wtn4l+Ma3Lr4R8H6bKNR0n4dPIvMFmr4TUdaKHNxqEuFiBKqY4gVmn7XLHcd9NdjrvhD+zPrvjHX1+I/xon/tTV5br7XDZyTNPb2cx/wCWpZwDc3OOs7gbekaxrxVxgoevclty3Po/w/4P0vQ4AqQAtjn/AOv6/wCetMDX6cCgAoAcnWgB1ABQBJQAUARnqaAA9DQBHQA1+lADaAGXFtBdR+XPGGHuOlAHn3xY+A3hL4haDcaTreh297aT8yW88eRkchh3VgeQwwQeQQcU02hNXPnfxB4c1/4FaXrPgH4m+H7Xxv8AC/xFEbfxJpXiRPOgkhJGFvcg4ZSFKX6jejKhmDAeauTjy6x+7/IpSu7M1vCvxD1X9mCGyufEPjbUfEfwgvbuGw0Xx34guDLqPgu4cqkOkeIpMs0lsSUS21Y7iMpHcMwMc0he/vIe71PpfQ9eEuVIaORHKSxSfejYdVOO/wCYIIIJBBNppq6I2dmdboutHI+emM63SNWWVQrNQBqggjI70AFABQAUAFABQBFd3UdpCZXP0oA8W/aZ/aI8HfA7wBqfxA8a6w1pZafAsk7wQGeYl3EUUUMIyZ7iaVlhggUFpZXCgYDETKVttxo+T9R1rxr8OdeX4yfFPSZJPjV4jsmsPDfhezulnHw60y6Hm/2XaucrJq9wuJb6/wCiAEA+VHH5sXd+WO43bd7Ho/7OH7Nj6JJ/wmHi94rzX7uLbdXSZ8q2jLbvs9uG5WIE5LH55Gy7kseNIpQVkTrJ3Z9B6dptrpkAgtowMDGcUwLFABQAUAOTrQA6gAoAkoAKAIz1NAAehoAjoAa/SgBtABQA9OlAGH4s8Ead4gsZFNupLKQylcgjvx3HtQB82a54Nvv2bdburmy0a11HwNqtrJp+u6DqkImso7SYFZLSdGBD2MgZlwwIty2f9UzBZkne6DyYz4Z67c/szeLNA+F8ur32o/DTxTcnT/hVr+rXBkutFvkBY+EdSldjmVVDHT7lzmWNTbuxYRSyTdfEirc2h9JaBrkVxEk8Mu5WGQcEfoeQfY9K03IR2Giat0+egZ1+k6gJ4wjN9KAL1ABQAUAFAASAMk0Ach488UR6faySBWcghIokYBpHJAVBngEkgZPAzk4FJuyuB8Nal8VNP+J/iaX9sjxXe2114Q8Jajd23wWs7iJpLbWNXhBhv/Frxf8ALW2tgWtNPXBLnzJgC1xFIM3JpX6sryOv/Zw+DOu67rMvxY+IlvO+t6oHaOK8fzJbGCRt7IzfxTyNh5n7sAg+SNa0jHkViW+Z3PpLTtPg022W3gQDA5IFMCegAoAKACgBydaAHUAFAElABQBGepoAD0NAEdADX6UANoAKAHJ0oAlj6fjQBi+MvB1l4g02RJLZHDoVkjdAQwIwQR3B9KAPnHW/hx4Y8OQav8A/itoc2r/D3xfZm0uLJZWWVIoz5iCJ1+aO7tGVZ7aVSHCxbQQ0SNWclyu/QF2Nb9nn4geN9A8Q6v8As+fGbxAupeMfCMdtLJ4gEYRPFmi3JZdN8RRBfl/0gI0FyqcR3kL4BWZWLXuvyY2rq573oup9PmqyUdhoWp9PmoGdXZ3AuIgQeR1oAloAKACgCjrt+tlaH5sEigD5A/bO8X6v8V/FGkfsm+DvFE+jz+MbW/uPFniK1lKP4e8KWaqNZ1JXGSkzrNHptu45WW8mfBEJxD1fkilornE+HNDsvjl8VraDRfDMWleC/BcFpp+gaBBFsgtI7ZFFlYqnQJbxbZXUcefKo/5YAUQ1fN9wpdkfU/hjQoNE01Y41G4p1qxGhQAUAFABQAUAOTrQA6gAoAkoAKAIz1NAAehoAjoAa/SgBtABQA5OlAEidKAJ4uVwfSgDifi/8NrDxboc1nIWjLFXguIv9Zbyqd0cqnsysAR9Pc0CZ87fE7RfGF94SsPiP4M8OtffET4SSX15puh2mVbxFo0iqdc8OrzlvPgCXtoOSs8MPKrG1ZW+yWn1PbPhZ8QPDfj7wnpfjTwh4gTVNJ1fTbe/0jVI+FvbOeJZYJwO2+NlJH8Lh1/hNaJ3RDXKz0fQ9QHHzUxna6DqG4AE9aANoc8igAoADxyaAOF+JviR9PsZZIJo0lOI4GmbCK7HarN6ICdzHsqse1KTsrglc+EPDvjK5174da7+0daWjXOr/G2/gXwhb3Y+eLwZYTvb6HA3GQNQupJ9TkYctHdShs+WMZtaKJTfU+kv2efhdZeBfCVnpCu07QoWuLqQfPczMxeWZ/VnkZmP+8fStdCEj09uhoGR0AFABQAUAFADk60AOoAKAJKACgCM9TQAHoaAI6AGv0oAbQAUAOTpQBInSgCxF0oAkntlu7doWGcg4oA8c+Jegar4Q8Z2Pjnw0ViuhcRRh2yFFwrE2zNjnazM0D+qXB9Kia0ugW55b8CJNM+D/wAX/E/wB0hTB4buok8b/DWB8L5OharcuLzTgBxmw1dpUEY4ih1KBeiihPW/Rja0PonQr/7vJ96slHa6BfYwN1Azr7KbzoA1AE1AEGozi3tHkPpQB8jf8FCta8Q+L/Atn+z54K1Wa01z4pa5aeDdNubViJrRNRMov7yMjndb6Tb6pN7Hyz1xUvWSRS2Zy2hafonxK+PIm8K6ZBa+GfDFtHD4dsbRcQW9rGjWWnxxj+FFt455wOg+3KewpRV7yJfY+l9FsE0/TY4VGOP8/wCferAtHoaAK97fafpdjPqur30draWkDz3d1McJDEilndvZVBJ9hQB8ffCH/grpL8QfEHw18U/EL9iL4geAfhH8a/E1p4e+EPxb17xDpE8etahepM+nJdaXbzteafHdiBxFK4dSXi3bVfeoB1H/AAUH/wCCk8/7CfxF+Evwh8MfsoeM/i74p+MM2vReG9A8E38EVyraVDZzzfLKjeZmO6L8YwIWznNAHm3/AA9q/bS/6QG/tJf+BVn/APGqAPrf4B/EnxX8Yvgz4e+KHjr4M698PNX1qyae/wDBPihkOoaQ4lkQRTFABuKorjAHyuuQDQB2KdaAHUANeeGOSOGSVQ0rYjUnlj7CgC7psMN5ceVIGwPQ4oAm8Qafb6bYtcWu7coz8zZFAGHpWqjUYXeaMRtGpZiD8uB1PtQBayGTcrAgjIIPBFADKAPJ/wBsX9q/Rf2Rfh3oPiV/hpr/AI28SeNPGth4P8AeCfDTQx3Oua5erM8FuZ7hlhtIRHbzySXErBI0iJOTgEAxf2Rf2yNW/aQ8T+OPg/8AFb9nTxH8JfiZ8Nzpcvi3wP4g1iy1RFs9Shlmsby11Cxdre7ikWCZW24MckZRhnGQDyv9pP8A4Kx6z4L/AGldb/Y0/Yi/Ym8b/tF/ErwfaW1z4/tfDWsW+jaL4Y89C8VvdapcxyRi5ZBu8rZt6pvMkcscYBofsif8FU/+F0/tF/8ADFP7WH7JPjL9nz4y3ekTat4b8JeLdSg1Kw8S2MSM8r6bqUCRpdSRpHK7oIwAsUmHYo6qAfXCdKALEXSgC1D1oA534keFrXxFotxp9yMR3MDI7L1XI4Ye4PI9MCgD5X+P98vg/SPDXx41ZjC/wx8YRy+I3jbGPC+vyf2VrkQH9yC+WHU2J4VbePpWVnZxKTPfvDV5dxj7NfhRcQu0N0F6CVGKOB7blbFap3VzN6M7nQLsgrk80FHcaFcb0C560AadAGR4uu/IsdgbqOlAHxR8T/EOoeKP2vr/AFvTN7H4W/C++1HTmVvlh8ReI70aHpUo9Sttp18fpek9DWbdk2V0SO3/AGWPCdjDor6zYxbYdQvHmtCev2VMQWv5W8UX5mrirRSJ6nuLgAAAcDpTAaehoAxvH3h6+8X/AA/8QeD9LeJbrWNAvrC1ad9sYlmt5IkLHnC7nGT2FAH5bfD3xTr/AMff2dv2F/8Agn74Q+CvxKsPip8DvjL4B1j4vaJ4k+HOqafaeFtP8NQ3IvrqfUZoBZPHLtQ25imczedEoAdwlAHs/wDwUz8Q+HvCn/BYD/gnp4g8V+ILDS9PttZ+KBub/U7yO3giB0LTlG6SQhVySAMnkkDqaAPsyD4+fAG7uI7S0+P3gOaaaRY4YYfGlg7yOxAVVUTZYkkAAckmgDrGUqxVhgg4INACp1oAVjtUt6CgDn7WaSfxbbSSvk+Yw+g2NxQB1ugf8fhoAueL/wDkFP8A7tAHHaD/AMel5/16y/8AoJoATwpPJ5Jti2U25Ueh9qANagD5X/4Kr2/ijQfDnwG+PGk/DzxH4j0P4U/tKaB4r8dxeFNHk1G907Q00/VLOe/W1hBmuI4ZLyBpFhR5FjLPtIRiADL/AGEPGX/DRH7c/wC0N+2D4B8FeKrT4beJPDPgXw34O8S+KvC15o3/AAkNzpsOqSX0tpbX0cVyYImvIYjLJEgaTeqbtjEAHH/8ER7GzTxl+25rK2sYu7n9uvx1BcXOweZJFE8BiRm6lUMsm0dB5jY6mgD6I/aJ/Yn+G/7THx6+Cf7Q/i/xVrmma18CvE1/rXhmPRmgVb2S7it45be4aSN28hhbruSMqWBILDAIAPZk6UAWIulAFqHrQAuoWy3Nkykcgcf5/KgDwT4sfDTw7441+/8AhV4vJTQ/H+lah4W1plXJW01eykt3I9G+02tpg+sx7moekrjRzf7HPxF8RfEb9n/wf4s8Zsf7fm8P29v4mTGPL1ezL6dqCEdj9tsblj/v046XQp9z3jQLrOMN+VUJHd+HLn7vzUDOjByM0Ach8UNYTSNMuNQkGVtbd5WA7hVLEfpQB8K6NdzNdfF3xkkzNeaj8Zo9AtJAPv2XhnwxEIwPYasZz/vOaxfwpdy3oz6k+Dnhy38OeHbXSLaPEdlaRwIPZECD+VbGa2Ovk7UDGnoaAKuo291eadc2djqktjPNbyRwX0EUcj2zspCyqsqsjMpIYB1ZSRggjIoA8U8F/s1ftd+HvFeja34t/wCCqPxK8TaVp2p29zqPhrUPhn4Lt7bVIEkVpLWSS20hJoklUFC8TpIoYlGVgGAB8sf8FiPgR8H/ANpn/gqD+wL8Dfj34Cs/E/hLXtW+JiaxoV+8iw3Sx6Npk0YYxsrDbJGjjDDlR24oA9r8Pf8ABDP/AIJEeE/EFh4q8N/sFeD7PUdLvYrzT7uK/wBSLQzxOHjcA3RBIZQcEEHHIIoA+r5JHlkaWQ5ZmJY+9AAnWgBZOUYexoA52w/5Gm2/66N/6A1AHX6D/wAfhoAueL/+QU/+7QBx/h/H2W73dPssv/oDUAReE+p/65mgDZoA4344/D/4pfEjwna6H8I/2ktf+FupQaolzP4g8OeHNI1Oe4gEcim2Meq2tzCil3Ry6oHBiADAMwIBmfAr4U/HD4Z3GrTfGT9sjxX8WRfrANPXxP4R0DTP7MKGTzDG2k2NsZfMDICJd4XyhtxlsgHy5/wRJIPiH9tZQeR+3l8QMj/gdr/gaAPqj4s/tQ/An4EfEX4efCf4seOG0nXvitr02i+ArMaTdXA1K/iWJmgLwROsHEyYeUonJ+YYNAHoSdKALEXSgC1D1oAsxrvQr6igDxn9prz/AA/4YuPGVoP3uiwtqSY9bGWLUl/WyI/4EaifwjW55l8D7WLwd8XfjN8LIJlMHh/4z6pd2RU8NBrdjp2vLj2E97f4+hpr49Qfwnu3h644U5qiUd34cmPy0DOvhO6JT7UAee/GbN3ptxpZP/H5ttMD/pswi/8AZ6mbtFjW58TfA+4tfFPwj8IamvMviXxv8R/EM2R98XXjuOGNv+/DkfSpatNIH8LPsPwXFs0zdjHHP4//AKq0EaknagBp6GgCOgAoA+d/2of2MfG/x5/bs/Zg/ay8PeMtGsNI+BOoeL7jxBpV+JvtWpLq+m2tpCLbZGyZR4GZ/MZOGGNx4oA+iKACgBydaAFf7h+lAHO2H/I023/XRv8A0BqAOv0H/j8NAFzxf/yCn/3aAOO0AZtLsf8ATrL/AOgmgCPwmOSf+mZoA2aAGv0xQA2gD4b+Jf8AwT2/bv8A2dP2s/H37Wf/AASe/aB+Gej2nxhv4tT+J/wi+Nej30ugy60isH1eyuNORrmGaYu7yRDYGkkkZpJE8qKAA0f2ef8Agnz+2V8S/wBsfwx+3r/wVN+PPw/8T+JvhrY39r8Jvhv8JNJvIfDfhya8iWK51Fpb9VuLi4dAAFdW2skTiQ+UiqAfbKdKALEXSgC1D1oAtW/WgDzz4+aImt+DNQ0l1yt1byWzD2mieA/pKamfwsa3Pnf4XX8k37T3ii+c/wDI1fCr4b+LHP8Aellsdd0+RvqfsluPwHpU31iPoz6C8Ny5Aya0M1ud74ak5FBR2tkc2yn2oA8++KJB1OzjPQ61YD/ychqZfCxr4kfDf7ILCb4K/Ab5cfafhrc3bf78/iKOZv8Ax4de9T/y8XoD+Fn2t4UGNJB9hx+f+NaCL0nagBp6GgCOgAoAKACgAoAcnWgBZPuNj0NAHO2P/I1Wv/XRv/QGoA6/Qf8Aj8NAFvxh/wAgp/pQByHh7m2u/wDr2l/9BNAEfhTof9w0AbFADZO1ADaACgBydKAJE6UAWIulAFqHrQBat+tAHKfFKMf2YxOCFuoP/R6UnsC3Pk34PtPcfHrQZgflf9lbwGWye8etaso/SRv19aiPwx/roXLqfRvht8YFaGXU7/w0csn4UFHc2H/HstAHn/xR/wCQtZf9hyw/9LIamfwsa3Phv9jkf8WV/Z+z2+ESkf8Ag6Wof8VegPSL9T7X8K/8ghT61qIuydqAGnoaAI6ACgAoAKACgBydaAFf7h+lAHP2H/I0W3++3/oBoA63Qf8Aj8NAFzxf/wAgp/8AdoA4/wAPHFvdf9esv/oJoAj8Kf8Asp/lQBsUANfpQA2gAoAcnSgCROlAFiLpQBah60AWrfrQBy3xS/5Bko/6eIf/AEelHQOqPk34Kf8AJb9A/wCzVvBP/p81Ks4/DH+uhb3Z9EeGzzj61oZfaPQfDPVaCjurD/j2WgDz/wCKP/IWsv8AsOWH/pZDUz+FjW58NfseEj4Lfs+/9kiT/wBPK1P/AC9Xoxy2fqfbHhX/AJA6fStCS7J2oAaehoAjoAKACgAoA87/AGlf2lvCf7LXguw8deMfhv8AEPxPbahq66fHZfDbwJd+ILyJzFLL5skFqC6RYiKmQ8BmQfxUAeLr/wAFgfgWDk/skftW/wDiM+u//G6AFb/gsH8Cyp/4xI/at6f9Gz67/wDG6AL/AMBv+CjPwr+O3x00H4V+G/2evj9ol5q8twsOp+NPgjqukabb+XbSzEzXU6BIgRGVXPV2Ve9AH1ZoX/H4aALfjDjSXP8As0Ach4e/49rr/r2l/wDQTQBH4U6H/cNAGxQA1+lADaACgDyT9vf9q+z/AGGP2MfiH+1ze+EU19fAuix3seiSagbRb6WS6gto4jMEk8vLzrzsb6UAcl8OfjX/AMFVtY+IGh6J8VP+CdHw28N+HLrV7eHxFrdl+0It9c6ZZtIonmS1GloZ5EQswi3ruYBdy5yAC3+1v+2v8TvhP8bvBf7Hv7J3wAtfiZ8XvG2h3niF9P1nxMNI0bwv4ftpUt31bUrkRyylHuZEhjhijLSMsmWQiNZQBP2XP22fjh4o/ae1X9h79tL9nDS/h38Srbwb/wAJb4X1Pwl4qbWfDvi7RluVtriW0nkhhlguIJpESS1lXzNp80YQqSAfUFv1oA5X4p/8gyT/AK+Yf/R6UPYOqPk/4LgD44eH8D/m1bwV/wCnvUqzj8MS3uz6H8Nfe/OtOhl9o9B8M9VoKO6sP+PZaAPP/ij/AMhay/7Dlh/6WQ1M/hY1ufDX7Hn/ACRf9n3/ALJEn/p5Wpf8Veg5bP1Ptjwr/wAgdPpWhJ8Of8FAP2kP+CrnwTki+LuiH4VfDX4Z2Xxn8P8AhjSdMton8SeJfFen3murYG7uZpkSz0uGe2dLhIYkmuIy3ltIhBNAH1l+158bL79mH9m/4h/H3Q/hzqXi+98GeGr3UdM8K6TBJJPqt1GpEFuBErOqNKUDuqsUj3vg7cUAfGvxdh/4LU/ssfs2a1+3348/br8CeNLvwd4Ybxd40/Z7PwcsNN0IWEUS3F/ptnrUUjaislvAJzFPIX8x4lDqQxoA9b/bP/bB+LU0XwB+Bf7E+raRofjb9py/uH8LeMvGWkG8tvC+hWmkDVr/AFA2YYLc3qWzxiG3ciJ5CQ7ADNAHJ+F/Hv7f/wCw/wDtY/CX4O/tXftZaP8AHz4f/HHXL/w5Y+IZ/hpYeFtZ8J65Bp8l5bBY9NYwXtpcCGaNw6iSNirB8KVkAPtPBPQUAORpYzmNmU+oOKAHpcXWf9fJ0/vGgBz3F2UI8+Tof4jQBz1nLO3iW2DyuRubgk/3GoA6rQv+Pw0AW/GJxpTk+lAHn99q2uaB4I8Q694Y8JT+INTsdBvrnTdAtr2G2k1O4jgkeO1SaYrFE0rhYw8hCKXyxABoA+ZPDf7Z3/BSZI8wf8EQfGUhK9v2hvBo/ncCgDU/4bS/4KYf9IN/GX/iRXgz/wCSaAGv+2l/wUux83/BDfxl/wCJE+DP/kigBv8Aw2l/wUs/6QceMv8AxInwZ/8AJFAHX/An9pr9tr4kfFLTvBnxo/4JZeJvhl4cu47hr7xrqHxj8M6vDYNHBJJErWtjO08nmSKkIKA7TKGb5QxABw//AAXK+Efxg/aD/wCCZnjT4AfAj4W3Xi/xL408S+F9NtNJt7KeeNI11+wupJ7nyBujtkW2Pmy8BIyzEjGQAcb+0H45/wCCnP8AwTi0a3/bQ/aC/bj8LfGv4b2/jLSbD4ofD1Pg9ZeHTomm6nqMVj9t0a8tppLi4lt57m3VYbtn82MuzOrDNAHTXtubT/g5IitWIJj/AGD7hCR3x47iFAHQ/F3n/guV8BP+zd/Hf/pfplAH2Fb9aAOW+KY/4lcn/XzD/wCj0o6B1R8n/Bn/AJLjoGP+jWPBf/p81Ks4/DH+uhb6n0N4a+9+dadDL7R6D4Z6rQUd1Yf8ey0AeffFH/kLWX/YbsP/AEshqZ/Cxrc+HP2O/wDkiv7P3/ZIU/8AT0tL/l78hy+F+p9r+Ff+QOn0qyT5R/4Ldf8AJmnhv/svvw9/9SG1oA+wNRd49SuHjYqRM+CDjuaAPiz/AIKmeK9X/ag1DRv+CP8A8EtZnTxb8X4Ib74r61YyDPgr4fQ3Mb6heythgtxebVsraJlKyGeTcYxsYgCftpWGl6T/AMFY/wBgPSND06KzsbO9+KVvY2cC4S3gj8GqkcajsqqAo9hQBr/8FIP+Tov2Kv8As5KT/wBR/UaAPS/2o/2K9K/ao8QaR4h1D9q34/fDttIsHtRY/B74t3Xhy1vA0hfzbiKFGE0oztDnBC8dhQB5d/w6E8N/9JM/23v/ABJ/Uv8A41QAq/8ABIPw2xx/w8z/AG3v/En9S/8AjVACt/wSB8NgE/8ADzT9t7p/0c/qP/xqgDY+An/BPHRvgb8dtB+KFn+3H+1N4vfSZbhh4e+Ivx3vNZ0e88y2mhxcWksYWYL5m9ckbXRG7YIB9XaF/wAfhoAt+Mf+QS+P7v8ASgDkPD3/AB73X/XtL/6CaAI/CnQ/7tAGxQA1+lADaACgDyb9uH/hry1/Zq1jxD+wvPZTfEnQ9R0/VdM0DUI7TyvElpb3Ub3ukebdRyR273FqJkSYAMsmwB03b1APlL9sL48/FP8A4KqfBax/YQ+Cf7AH7Q3gaTx94q0G58eeMvjD8M5fDuk+DdG0/V7PUrmT7RNIUvrsm1ijit4c+YJHbeNgDAHo37Zmm/Fj9mX/AIKbeEP+Cm3hX9nLx58VPBWpfBi++F/jnRPhho41PXPDpk1uLVbPVI7BSJb6BpN0MqxcxKpkOflRwCT9nrU/jD+2r/wUw0r9teT9mT4g/DH4Y/C/4R6t4R0Sf4s+HX0PWvE2tanfW08zwabKWljsYLe3H7+TYXlkCqrAOUAPt6360Acr8Uv+QZL/ANfEH/o9KHsHVHyh8GP+S46Cf+rWPBf/AKfNSrKHwx/roW+p9DeGvvfnWvQy+0eg+Geq0FHdWH/HstAHn/xR/wCQtZf9hyw/9LIamfwsa3Phr9js4+C37P3/AGSJP/T0tJ/xfkwfwM+2PCv/ACB0+lWI+IP+Cinwn/4KxftaeHrv4KeAP2aPgta+FNH+KmleIfDfiK/+Ll4l7qFnpWqpd2vn239nlYHnjiQOqu3ll2wWwMgHsX/CwP8Agq74h+A3xJ1O6/Zu+C/hn4nw2tkvwrtIviRd6rpV5cSzOt5Nfu1nC0Qt4tksaKGEzZRig5IB87fsYfA7/grt+x34P16Vf2Qvgp42+IXjvVRrPxT+Kfij483jat4s1IBlR5dmkhLe1gRjFbWcQEVvHkKC7ySSAHuP7Zf7Mn7TPxssfgd+1R8DT4L0b47fBPVJdZtfDXiPULifw9qaanpf2HXNGN3HEJU3IxFvdmLgxDcieYXjAOa8PfBj9vL9r39rT4WfHn9sX4PeCPhD4D+Cuoahrfh/wH4e8e/8JRqniLxDcWclnDdXF5HbW8NtaQRTSOkagyNICHDKwMYB9g0Aee/tI/Fb40fCDwXY+Ivgb+ylrfxf1S51ZbW78PaD4s0zR5bO3MUrm6aXUZEjdQ6JHsU7syg9FNAHjK/tv/8ABQzPH/BEH4j/APh7/B3/AMl0AK37b/8AwUN2nP8AwRB+I/T/AKLf4O/+S6AND4F/tRfth/EX456D4O+KP/BLrxp8O9CvpLgah4v1b4o+HNRg04LazOha3s7h5pN7qkY2DgyAngGgD6n0L/j8NAFvxl/yCX/3aAOQ8Oj/AEe7/wCvaX/0A0AR+Ffun/doA2KAGv0oAbQAUAOTpQBKhJXk0ATwnAyKALURJOSe9AFq360Act8U/wDkFyf9fMP/AKPSk9g6nyf8GP8Akt+g+/7LPgv/ANPmo1EPgj/XQp7M+hvDX3vzrToZ/aPQfDPVaCjurD/j2WgDz74o/wDIWsv+w3Yf+lkNTP4WNbnw5+x2v/Flv2fv+yRJ/wCnlal61V6BL4X8j7X8K/8AIHT6VoIuydqAGnoaAI6ACgAoAnt9N1G7TzLWxmkX+8kZIoAf/YWtf9Am4/78t/hQA5ND1kHnSrj/AL8t/hQAraHrO0/8Sq46f88TQBz8Wjava+JIJbnS7iNQz5Z4WA+43qKAOj0L/j8NAFvxj/yCX/3aAPP77w4njHwR4h8Hya/q+krq+g3ti2q6BqDWl/ZCa3kj8+2nUEwzpu3pIASjqrDpQB8p6L/wSF0vUIx5n/BVD9ukELyf+Gnbvn/yWoAvf8OctH/6Sp/t0/8AiTl3/wDI1AHT/Bj/AIJiab8E/inonxWg/wCCiH7XfixtEvPtA8N+PPj7c6po+ofIy+Xd2jQKJ4/mztJHKj0xQB9MUAFADk6UASJ0oAsRdKALUPWgC1b9aAOW+KX/ACC5M/8APzD/AOj0pPYOp8n/AAZP/F8dAGP+bWPBf/p81Gs4fBH+uhb2Z9DeGvvfnWvQy+0eg+Geq0FHdWH/AB7LQB5/8Uf+QtZf9hyw/wDSyGpn8LGtz4c/Y8/5Ip+z9j/okSf+nlal/wAX7xy2fyPtbwr/AMgdPpWhJdk7UANPQ0AR0AFABQB4b+0//wAEz/2B/wBtPx5Y/FD9qv8AZe0Dxv4g0zRI9HsNU1W7vY5IbFJ550gAgnjXAluZ2yRu/eHnAAAB5v8A8OEv+CNv/SPrwb/4MdU/+S6AHL/wQR/4I2k/8o+vBv8A4MdU/wDkugBW/wCCCH/BGwKT/wAO+vBvT/oIan/8l0AavwD/AOCTP/BNj9mn476D8afgJ+x74Z8LeKtCkuH0jW9Pvb9pbYy20sEmFluXQ5jlkX5lP3sjBAIAPrLQv+PygC34x/5BL/7tAHIeHf8Aj3u/+vaX/wBANAEfhX7h/wB00AbFADX6UANoAKAHJ0oA87+In7WHwa+Fn7SPwx/ZL8TapeyeOPi1HrM/hfTbC2SRILXTLJ7u5urti6mCIiMxRkK7SSkgLtSR0AOd/av/AG+/hT+yZ4u8K/COf4c+PviP8RfG0M9z4a+Gvwr8OLqmsTWMBCzahMJJYYbS0R2VDNNIu5i2wP5cmwAtfsi/t+/Cj9rTxj4q+EUPw58ffDf4i+CYre58SfDX4qeHV0zWIrGclYdQgEcs0N3aO6uglhlbawXeE8yPeAe+W/WgDl/ij/yDJP8Ar5h/9HpQ9g6nyb8GefjnoB/6tX8F/wDp81Gs4fBH+uhb6n0P4a+9+dadDL7R6D4Z6rQUd1Yf8ey0Aee/FT/kJ2f/AGGrD/0shqZfCVH4kfDv7HBz8E/2fif+iQp/6elqX/FXoEvhfyPtfwt/yCE+laEmlHZXl0C1raSyBfvGOMnH5UAQMDgjFADfJkN2dPAH2gQ+abfI8wR/39vXb74xQARQyzyCGGJndjgKoyTQA2IC4he4tnWWOKUxSvEwYI46oSOjex5oAKAPP/2kbz9rOx8DWU37G/hz4Z6p4mOsRjUbf4qavqVlp66f5M29on0+CaQz+b5ACsuzYZMnIWgDxZfEP/BdjPHwh/Y3/wDDgeLv/lbQAreIf+C7O05+EP7G/T/ooHi7/wCVtAGj8C9Y/wCCrF38ctBg/aR+HP7Nth4MaW4/ty68BeLvEV1qqL9mm8ryI7yyjhYmbyg29hhC+OcUAfU+hf8AH5QBa8Zf8gpx/s/0oA4C+8VaT4E8D+I/HWvpdtYaHoN9qN8un2Et1OYYLeSVxFDCrSTPtQ7Y0UsxwFBJAoA+YPDn/BZ/9iG2TMunfGPlf4fgB4nb+VjQBqf8Pqf2HP8AoG/Gb/xH3xT/APINADX/AOC1H7DuP+Qd8Zf/ABH3xR/8g0AN/wCH0/7Dv/QO+Mv/AIj94o/+QaAOv+A3/BTX9lr9pH4qab8GvhlY/EtNa1WO5e0bxD8H9e0qzAgt5J38y6u7SOGL5ImC72G5iqjLMoIB7n4r8X+Evh54P1j4ifEDxFbaP4f8PaVc6pr2r3jbYbGyt4mmnnc9lSNHY+y0Afkn8Bbb4mfHX/gsX+yH/wAFN/jFZ6jpV/8AtB23xPn8CeE72f8A5F7wJp3huFdAt2jDMqXE63l3qErI5RzqKkBTkUAfZWjW9u//AAcE69eNAhmi/Yj0qOOUqNyI3jK+LKD1AJVSR32j0oAnvba3X/g4S0K8W3QTSfsQ6qkkoQbmVfGdgVUnqQCzEDtuPrQB9l2/WgDl/ij/AMgyT/r6h/8AR6UnsC3Pk74Mgf8AC8PD/wD2ax4L/wDT5qNRD4I/10Ll1Pobw1978606GX2j0Hwz1Wgo7qw/49loA89+Kn/ITs/+w1Yf+lkNTL4So/Ej4d/Y6G34J/s/D/qkaD/ytLUv+KvQUtYs+1/Cv/IHT6VoI/Ob/gsT+w54L0nwRpf7WHxM+M3xH+IHiv8A4aQ8HTeELHxV4skXQ/BtpdeIoIzZ6ZpdqIrZALZkgaedZppNhcuCxoA+1v2/fit4x+A37F3xu+N/w4v1tPEXg/4XeJNZ8P3jQrILa+ttOuJbeXY4KvslVG2sCDtweDQB8MeKv+CP/wCxLof/AAStvv2i9K8D6pD8bLD4KS/ESH46p4o1EeKj4qTRTqf9pte/aN5LXQLGPO3aSBhsOADrv2qvib8SP2tP2Cf2KPAfxB8cX+nW/wC1D4r8A2Pxln8NzGwl1jTL3w7Lqmo2CPCVe2hupo1V/KZT5e6PO1mUgGV+1d+xp+zV/wAEzPjf+zF+0f8AsDfC21+F2t+Jf2kfCvwy8aWHhu/ul0/xL4b1n7VDc299bPKyXEiGNJYpmBZJFDncyoyAH2p8X/2vv2Rf2evElt4N/aC/av8Ahj4C1i809b+z0nxr4+07Srqe1aSSJbhIrqZHaMyRSoHA2lo3GcqcAHK/8PNv+CaH/SR34A/+Hl0P/wCSqAFT/gpv/wAEzwef+CjvwB/8PLof/wAlUAK3/BTj/gmftP8Axse+APT/AKLLof8A8lUAL8L/ANuL9iL4wfFfSvh58If2z/hH4r8QalJMNO0Lwz8StLv726KQSSOI4IJ2d9qI7HaDhVJPAoA970L/AI/KALXjI/8AEpfn+H+lAHI+G2ZILtkJBFvJgj/cNAD/AApqmohD/wATCf7v/PZv8aANj+09S/6CE/8A39b/ABoAR9U1LH/IRn6/89m/xoAZ/aepf9BCf/v63+NADZb69mTy5ryV1PVWkJFAHyx/wVu/ZR/az/bY/Zn079nb9mDxT8O9O0/VPFtlefEiy+Iuo6nbW2u6PayLcDSg+mwSTrFPOkfnMjwv5ce1X+dqAPkT49p/wWGs/wDgrL+xTZ/G9f2UoNeSX4gReCIPA0XiaPTE09dHsRrCXS3OJBMLFVFoIQIxID5g2gUAfQv7Svxs+G37EX/BZjQ/2nf2n/ECeD/hd8R/2bo/AWhfEHVY3/su38R2XiG51I6fdzIrLaNJZzebG8pRH8uQAko2ACb9mL42fDv9tz/gs5r37T/7LWvx+Mfhh8Of2bJfAOufELS0f+yrjxJeeIbbUl0+0mdVW7aO0g82R4S6J5sYYguuQD70t+tAHL/FH/kGSf8AX1D/AOj0pPYOp8m/Bk/8Xv8AD/8A2a14M/8AT5qNZx+CP9dC3sz6H8Nfe/Otehl9o9B8M9VoKO6sP+PZaAPPvinzqlmP+o3Yf+lkNTP4WOPxI+Hf2Ocf8KV/Z/yf+aRp/wCnpan/AJer0B/Cz7X8Mf8AIJX6VoI+UP8Agt1/yZp4b/7L78Pf/UhtaAPSP+Cr6PJ/wTU/aVWNCx/4Uh4vOAM8DSrok/kM0Acx8QLyz/4cu63qP2uL7P8A8MiXMv2jzB5ez/hEWO/d0245z0oA+dLuSOD9j3/glLcTOEjHjf4aIZHOFDN4IuQq5PcngDuelAHqv/BZmWOLT/2S0lkVTJ+3j8MljDHG5vtF6cD1OAT9AaAPqXxt8Ffgp8TNUh1z4mfBbwd4lvre2Ftb33iLwrZX80UIZnESyTxOyoGd22g4y7HGSaAMb/hlD9lD/o1P4X/+G60v/wCR6AHJ+yf+yeev7KXwv/8ADdaX/wDI9ACt+yd+ycFJ/wCGUvhd0/6J1pf/AMj0AU/B/wAAP2f/AAV8QdN8T+Cf2f8AwHouqWkkptNT0bwXYWlzAWhkRiksUKumUZlOCMhiOhNAHq+hf8ftAFvxicaU+P7v9KAOQ8O/8e93/wBe0v8A6AaAI/Cv3D/umgDYoAa/SgBtABQA5OlAE0bsFwG9ce2etADri1tNS06bSdTs4bq0uUC3NpdQrJFKvoyMCrD2IoAtaZaWem2EOk6ZZQ2tpbLtt7S1hWOKJfRUUBVHsBQBet+tAHL/ABR/5Bkn/XzD/wCj0pPYOp8m/Bjn44+Hx/1az4N/9Puo1nFe7H+uhb6n0P4a+9+da9DL7R6D4Z6rQUd1Yf8AHstAHn3xS/5Ctn/2G7D/ANLIamXwsa3Phz9jwf8AFlP2f/8Askif+npam371egS+Fn2x4Y/5BK/StBHyl+0r/wAEhfDv7VOu6tf/ABQ/4KJftSJpGpeLx4js/CGl/EDSU0nR7qO8+12sdnDJpLtFFbSBPJVnZlEaZZiM0Aer/AL9kCD4L+GPGHgz4jftO/Fr42aR40s4rPUdN+N/iCx1iC2tRFcRT28CQWVuFjuEuCsyuHDiKMDbg5APCz/wRS+Hk3w9T9m++/bo/aJufgbHIET4Ky+Obb+zv7PEm5dHN8LUagdNCYhFv5+4RAL5mRuoA+gP2nf2OvgT+1l8B4/2d/iLoN3pOi6bc2N54R1DwbdjTNR8JX9iMWF/pU8an7HcWw+WJgpUKWQqyMykA82+F/8AwTM0PQPjl4V/aE/aJ/a5+L3xw1z4ftNL8PrD4laxZf2XoN1JGYv7QW0srWBLi+WNnVbiYuV37godUdQD6ZoA8/8A2k/AP7RnxG8BWmhfswftLad8KvEMWtRXF54i1P4d2/iaO4shDMr2gtZ7iBUZpHhk84OSPJK4IckAHiafssf8FeT/AM5k/CP4/sk6Z/8ALegBW/ZY/wCCvIUn/h8n4Q6f9Gk6Z/8ALegDT+BXwI/4KK+DfjnoPiP46/8ABSbw5498LWstwdW8KWH7PNhocuoBrWZIwL2LUJXg2yNHJ8qHd5e04DGgD6o0L/j9oAteMs/2U/8Au/0oA4C+sPE2q+CPEWleCvE0Oi61daFew6NrVzpgvY9Pu3t3WG4e3LoJ1jkKuYi6hwu3cM5oA+ZPDf7MH/BXGSPbD/wWI8Ix/L3/AGTNMbP/AJVhQBpf8Ms/8FeP+kyfhH/xEjS//lvQB0Xwm/Z7/wCCl3hL4laL4k+MX/BUPw1418L2d5v1vwpafs2afo8upQ7WHlLeR6lI9uckHeqMflxggmgD6IoAKAHJ0oAkTpQBYi6UAWoetAFq360Acv8AFHjTJD/08w/+j0pPYOqPk34McfHLw/8A9mseDf8A0+ajWcPhiVLqfQ/hr7351r0M/tHoPhnqtBR3Vh/x7LQB598Uv+QrZ/8AYbsP/SyGpl8LGtz4c/Y7P/FlP2fx/wBUkT/09LU/8vF6BL4WfbHhj/kEr9K0EXJO1ADT0NAEdABQAUAeI/tOf8FFv2R/2O/HFh8Of2gvG/iLS9X1PRk1Wyh0j4ca7rET2rTTQhjNp1lPErb4JAY2YOAFYqAykgHnP/D8j/gmh/0Vzxt/4Yzxf/8AKqgBU/4Lk/8ABM8Hn4u+Nv8AwxnjD/5VUAK//Bcr/gmdtP8Axd7xt0/6IZ4w/wDlVQBqfAb/AIKnfsQftG/HbQfg58IviJ4nvfEGty3K6bbaj8LPEWmwyGK1mnfdcXlhFDHiOJyN7jJAAySBQB9XaF/x+0AWvGX/ACCm/wB2gDkfDn/Hvd/9e8n/AKAaAGeFBlCfRaANegBr9KAG0AFAFTxJ4n8L+B/C+peNvHHibTtE0TRrGW91jWdYvo7a0sbWJC8k800hCRRqoLMzEAAZJoA8A/Zv/wCCv/8AwTO/a2+LMXwJ/Z7/AGvdA17xZdeb/Zmj3Glalpp1Mxlg62ct9awxXjDax2wO7FVLAEAmgD079qD9sP8AZg/Yl+HMfxW/at+NWj+CtDuLoWtjNqIlmnvp+D5Nta26SXFy4BBKxRuVHJwOaAIf2Qf27f2QP28fCuqeMf2Rvj3o/jW10O7W3121tYbi0vtMkfeI/tNndxRXMCuY5AjvGFcxuFLbGwAeyW/WgDl/iiN2mSD/AKeYf/R6UPYFufJnwX/5Lj4f/wCzWPBv/p91Cs4/DH+uhUup9EeGvvfnWnQz+0eg+Geq0FHdWH/HstAHn3xT51SzH/UbsP8A0shqZ/CwW58N/seDHwY/Z/8A+yQx/wDp6Wp/5er0KfwM+2fDH/IJX6VoSXJO1ADT0NAEdABQAUATW+oX9opS1vpolJyRHKVH6UASf21rP/QWuv8Av+3+NACprWsE86tc/wDf9v8AGgBW1nWNp/4mtz0/57t/jQBgR6pqc/iO3in1C4dSz5V5mI+43qaAOj0L/j9oAteMv+QU3+7QBw8GuaH4Y8O6x4m8T65ZaXpmm6Xc3epanqV2lvbWlvFEzyTSyyEJHGiKzM7EKoBJIAoA8f8AD/8AwUj/AOCcFkn+k/8ABRb4ALlf+i16B/S8oA0v+HmP/BNX/pI3+z//AOHq0D/5LoAa/wDwUw/4JrEcf8FGv2f/APw9Wgf/ACXQA3/h5d/wTX/6SNfs/wD/AIerQP8A5MoA3vhp+21+xR8afGVt8Ofgz+2b8IvGHiK9SV7Lw/4U+J2kalf3KxRtLIY7e3uHkcJGju21TtVGY4AJoAi/bN/ZJ8E/twfAeT9nf4l+Ib2y8OXvibR9U1y0tIY5E1a3sL+G8+wXCP8AegleFA2CCNoIPGCAfMX/AAVx+N/wC/aW0Lw3/wAE5f2ePGWkeI/2iIfiz4Yu/Aeg+G4vPuvh3Pp2pWl3daxcPGu3TIbfThcIWyGInCqjDdtAOv8AGH2Pxh/wceeFtP160hv7Pwf+xlqviDwhDeQrINH1O78XRWNxe24YHyZ5LT9w0i4YxkrnBxQBr/ELRNI8Of8ABe74UeL9C02G11Pxh+zR4tsvFF7CgEmpw2eqadJarMf4zGzHax+YDjOABQB9mwcnNAHLfFHjTJP+vmH/ANHpQ9gW6Pk34L/8lx8P/wDZrHg7/wBPuoVnH4YlS6n0P4a+9+dadDP7R6D4Z6rQUd1Yf8ey0Aee/FT/AJCdn/2GrD/0shqZfCxrVnw7+x6c/Bf9n8/9Uij/APTyKn/l4vQH8LPtjwx/yCV+laCLknagCh4l8R+HPBvhnU/GfjLxDY6Ro2jadPqGsavql2lva2FpDG0s1xNK5CxxpGrOzsQFVSScCgD5a8D/APBaz/gn94613w9ap4v8caF4e8Y6nHp3gz4jeL/hdrGk+F9eu5CRFDb6ndW6RAvhtrS+WvynLCgD2n9qb9rD4A/sW/DuL4nftIeO/wCwtPvNYh0jR7O3064vtQ1jUpiRDY2dpbI81zO5BwqKQACzFVBYAHKfsyf8FEP2Zf2rviFq3wX8DXvivw34+0TSU1bUPh98SfBN/wCHdaGms/lrfR295Gvnwb/lLxM+wld4XcuQD3CgDz79pX4BX37SHw+tfAGn/tGfFH4YPba1FqJ8RfCTxJBpepzhIZ4vssks9tcK1uxmEjJsBLwxHcNpBAPD1/4JTeJj/wA5ff22v/DwaX/8p6ABv+CU3iYKT/w99/ba6f8ARYNL/wDlPQBsfAj9gjXfgv8AHPQfiVe/8FGf2o/HcWlS3DN4W+IfxKsb/SL7fbTRYuIItNhaQL5nmLh1w6IecYoA+qdC/wCP2gC14y/5BTf7tAHFWOmaXreiapomuaXbX1je6dcW97Y3tus0NzC8TK8Ukbgq6MpKsrAggkEEGgDzLw1+w1+w1PDtm/Yg+C7AL8v/ABafReP/ACVoA1P+GEf2FP8Aox34L/8AhqNG/wDkWgBr/sI/sKY/5Md+C/8A4ajRv/kWgBv/AAwl+wp/0Y58F/8Aw0+i/wDyLQBseA/2Vf2VvhX4ng8b/Cz9lz4aeF9bto5Etta8N/D/AEywvIVkQpIqTwQJIoZGZWAYZViDkGgDC/bd/a20P9hz9nq5/aR8X+CLrWtA0rxHo9j4jktr4W40iwvb+Gzl1KQ+XIWjg85XZFXLcDKjLAA+ev8Agtla/BvRP2avBHx7+F1v4XPxuufi14Pk/Z48T6IkH9q61qlxrNhHLFaTw/PeW82nvOJIyzQyJ5e4EiOgDa+Il9o/w7/4OMvB3iPxjqdrpGmePf2QNU8K+CLq/nWKPWNZtfFsF/Np9uWOJJ1tXWbyxyVYY6igDW8Z+JvD/jf/AIL4/Dfwb4R1eDUdS+Hf7Nnii48b21pIHOijUNS09LOO4I4jll2lliJ37MPt2kMQD7Rg+9QByvxS/wCQXJ/18w/+j0oewdT5P+DP/JcfD3/ZrHg3/wBPmoVnH4I/10Klsz6G8Nfe/OtOhn9o9B8M9VoKO6sP+PZaAPPvinzqtmP+o1Y/+lcNTP4WOPxI+Hv2Qdo+C37Pu0f80fhP/lYWp3qfJhLZn2t4Y/5BK/StBFyTtQB83/8ABXv4BfFH9qH/AIJi/Gv4E/Ba7ji8T634MMmlxy3i263X2W5gvJbYyOVRPOht5YQXKpmUbiFyQAfE37cP/BbL/gnL/wAFE/8AgnnqH7FX7KV5deIviV8ctN0rwj4E+EmpeFbnTY9H1S5ubZbdJru4hTTo1s5RGVaGdxvji2YBLKAfUf7TGgS2X/BW39h3R/EN/wD2reaH4M+KLrqE4JaS9i0XSIWuhnkOwMhyeR5h9aAJv217aCT/AIKyfsJ6y6Zu/wC1vihaG4z85gbwi8hiJ7rvRWweMqDQB6p+0l+1r46/Z98Z6f4T8L/sIfG74qW99pC3smu/DHRdNurK0czSxm1la6voHWYCNZCAhXZKmGJ3BQDz3/h5Z8Xv+kO37W3/AISWhf8Ay3oAVP8Agpb8XweP+COv7W//AISWhf8Ay3oAV/8Agpb8X9h/406/tb9P+hS0L/5b0AaPwM/bc+I3xd+OOhfD3Xv+CcH7QvgK11OS4Evirxx4e0qDTLDZbTSgzvb6hM6higjXCHLyKOM5oA+pdC/4/aALXjL/AJBTf7tAHI+HP+Pe7/69pf8A0A0AM8LfdP8Au/0oA16AGv0oAbQAUAQazoeheKNAv/C3inQ7LVNK1Wyls9U0vU7RLi2vbaVCksE0UgKSxujMrIwKspIIINAHi3wC/wCCX3/BOv8AZd+KDfG39nz9jPwJ4V8Wgy/ZtfsNLaS4sjIrJIbXzndbMsjuhMAj+R2T7pIoA9D/AGg/2Yv2df2t/h2fhN+078FPDnjrw79oFzDpviLTlmFtcBSongk4kt5drMvmRMjbWZc4YggEf7L/AOx3+yt+xj4Su/Av7KfwB8M+A9N1GdJtTj0Cx2S38ibtjXE7lpZym9wvmO2wOwXAJoA9Ug680Acr8Uv+QZJ/18w/+j0pPYOp8nfBb/kt3h3/ALNX8G/+nzUKiPwx/roXLqfQ/hr7351p0MvtHoPhnqtBR3Vh/wAey0Aef/FEZ1az/wCwzY/+lcVTP4WOPxI+Hf2QBn4L/s+/9kehP/lYSl/y9+QS+Fn2t4Y/5BKfSrEXJO1AHyt/wW98L/Frxn/wSP8Aj74b+CFvfTeIZ/AhYW+msRPNYR3dvLqMagcsGsEu1ZBy6llwd2KAPEf+Cqf7VX/BNj4yf8Ea/Evws+APxV+HninT/E/hLTtL+BPw88GahbXGpf2qZbePSraw0uBvtNvcQOY1aIRq8WyRHUfMpAO1/bt+Iel/s3/t+/sUftA/tL+KLXQfC+n6b478JeLvHWrXUcWmabr2paJp5tUurliEhFxJZ3YV2IXMbElVUsACH44fHP4RftGf8Fh/2SPAH7PXxH0Lx3ffDaz+IXib4hSeD9Zt9Rg8Oabd+HRp1pJdywOyRNNdTxRomS3zqSAHQsAfcVAElvaXV2xS1tpJWAyRGhYgfhQBOmi6wM50m5/78N/hQAraNrG0/wDEquen/PBv8KAMOPRtXtvEME1zpVzGgZ8u8DAD5G7kUAdBoX/H7QBa8Zf8gpv92gDgLy68U2HgnxFf+BdEs9T1yDQb6TRNN1C+Nrb3d4tvIYIZZgjmGN5AitIEYqGJ2nGKAPmfw38av+CygT/R/wDgnp8E2+Xnf+0JOvb/ALBZoA1f+F2f8FnP+kd3wP8A/Eh7j/5VUAb/AMKviv8A8FS9c+JGjaR8bP2JPhN4b8J3F6E13XdC+Ns2o3dlBtYmSK2bToxM2do27169RQB9C0AFADk6UASJ0oAni/pQBbh60AW4fvUAct8Uf+QZJ/19Q/8Ao9KT2Gtz5L+C3/JcvDv/AGat4N/9PuoVnD4I/wBdCpdT6J8Nfe/Otehl9o9B8M9VoKO6sP8Aj2WgDz/4njOr2Y/6jNl/6VxVM/hY1o0fD37IAx8GP2fv+yPRf+nhKlq1VegS+Fn2r4XOdIQ+1aCRck7UAIkskLiWFyrKcqynBBoA838G/sh/si/Dn4lP8Z/h1+yZ8LfD/jJ5ppn8X6F8O9Ls9VMk2fOf7XDAs259zbm3Zbcc5yaAOw8a+CvBXxL8I6h8PviV4L0fxJ4f1eDydW0HxDpUN9Y30e4Nsmt51aOVdwBwykZAPUUAYnwf/Z/+AH7PGk32g/s9/AXwP4AsdUuEn1Oz8DeELHSIryVFKo8qWkUYlZQSAWBIBOOtAHXUAec/tRfsk/s9/to/De2+Ef7S/gK48ReHrPW4dXtrG28SalpbJeRQzwpJ52nXMErAR3Ew2M5Q7gSpKqQAeBr/AMEBv+CSLZz+y1q3/h4vGH/y3oAU/wDBAX/gkioJ/wCGWtW4H/RYvGH/AMt6AN39n7/gkp/wTv8A2ZfjvoHxq+B/7Pd5o3ijQZbltJ1Sf4keJNQEBltZreQ+Re6lNA+YpZF+eNsbsjBAIAPrTQv+P2gC14y/5BTf7tAHI+HP+Pe7/wCvaX/0A0AM8Kf6tv8AcoA16AGv0oAbQAUASW8Us7eXDGWY9gKAMPwL8VvhR8TZ7+y+GXxW8L+JZ9LbGqQeHPEdrfvZnOMTLBI5i5BHzY5GKANfxH4p8LeB/Dtz4w8c+KdM0PSLJVN7q2tajFaWtuCQBvmlZUTJIAyRkmgC14Q8VeFfHXh618YeBfFWl65pF6GNnq2i6jFd2twAcHZLEzI+CCDgnBFAG1B96gDlfin/AMguT/r5h/8AR6UPYOp8mfBfH/C8vDv/AGav4N/9PmoVlD4Y/wBdC31Ponw1978616GX2j0Hwz1Wgo7qw/49loA4D4nf8hiz/wCwzZf+lcVTP4GC3Ph79j47vgv+z9/2R6L/ANPCVLv7Veg5fCz7T8LnOkKfatCVoXZO1Axp6GgCOgAoAKAPG/2lPiX+3b4I8W6dp/7KX7Ifgn4i6LNpQl1PVPE3xbHh6a1vPNkUwLAbKfzE8sRv5m4cuy7RtyQDzr/hf3/BY/8A6RhfCb/xJlf/AJU0AKnx/wD+CyA6f8EwfhN/4kyv/wAqaAFf4/8A/BZHaf8AjWB8Jun/AEcyv/ypoA0vgX8Xv+Cknif446Fofx8/YW+H/g7wpcS3A1jxFofxvGr3NmBbTNGUtf7Pi83dKsaH5xtDlucYoA+pdC/4/aALXjL/AJBb/wC7QByXhpHkhukjUsxt5QABkn5DQBN4V0LW1iJbR7oDb1Nu3+FAGv8A2LrP/QJuv+/Df4UANfRNZI40i6/8B2/woAb/AGHrX/QHuv8AwHb/AAoAZNpep20ZluNOnjQdWeFgB+JFAHg//BQf9ln4iftn/ArSf2dvCXxFtfD/AIZ1r4g6JJ8W7eW6urebXvBsUzSanpNvPbDzIZrgCFc5VWQSIzBXNAHzh/wUD/ZB/ZR/ZA8T/s0fHH9jf9n3wn8MPiXH+0z4S8KeH7r4eeHodLbXNN1GSWLUtN1D7Mi/ard7KOVnkm3OvlkiRd77gDrPj38F/hf+1/8A8FuNG+Bn7TPg+x8c/D74b/swx+MvC/gPxJbrc6OPEF94iutOl1K4tG/d3cgtIFiRJ1kjTJZVD4YAEv7PvwX+Gf7H/wDwW81v4GfsweDrHwN4A+I37L0njPxN4C8N2622jN4hsfEVrp0Oo29ov7u0kNpO0TrAI43wGZS+WIB95Q/eoA5X4o/8gyT/AK+Yf/R6UnsHU+TPgsP+L5eHc9v2V/Bv/p91Coj8Ef66Fy6n0T4a+9+dadDL7R6D4Z6rQUd1Yf8AHstAHAfE3/kMWf8A2GbL/wBK4qmfwsa3R8O/sd4PwX/Z/wD+yPQ/+nhan/l6vRjekWfavhfjSFHtWhJck7UANPQ0AR0AFABQAUAYXxE+KXwu+D/h9fFvxf8Aif4b8I6S92lrHqvirX7bTbZ53VmWES3LohkKo7BAckIxAwDQBxSft2fsLDP/ABnB8Gf/AA62jf8AyTQASft2/sL+W2P23/gznacf8XW0b0/6+aAGeBP2qf2VviN8S9M8GfDj9qb4Y+ItZ1CSZbDRtA+Iel3t3clIZJGEcME7SSFUR3O1ThUYngGs3Oz2No0lKN7niXh3/gsholx+1J40/Zwj/ZwvBJ4O8Zaj4ffWT4uQrdm0uHgM4i+y5jDbN2ze2M4yetfJ1+LY0Mzng/Yt8rtfm/Tl/U/ofKvo9YjNOBaHEqzOMVVipez9i21dXtze1V/XlR3H7Yv/AAU50n9nT4Xt44uvgfc6wpUf6NF4lW3PJA+8bZ/X0rTM+Ko5bQ9o6Ll/29b/ANtZycDeAmI41zZ4GOYqlvq6Llt5e1j+Z5z/AME+P+Cifgv/AIKlaL8XfhLrPwEvvC+k6L4XistXB8ZyTyajb6nDfQyIklvBbSWzKkDYkR9+ZMqUKgnqyXPlnFGVRU+S3nf9EfN+KPhRU8M8xo4SeL+sOpfVU/Z2tb+/O97+VrdR3hP/AIId/wDBLTUIts37OviA7U/h+NXjEfy1evdp1Oc/KsRQdE1/+HFH/BK3/o3PxF/4ezxl/wDLetTmEb/ghT/wSuAyP2cvEX/h7PGX/wAt6AG/8OK/+CV3/RuXiL/w9njL/wCW9AHY/AP/AIJU/sFfsv8AxW0343/Av4Na1o3ifSI7mOwv7r4o+JdSjRZ7eS3lDW99qM0EmY5XA3xttOGXDKrAA938WeL/AAh8PPCGq/EH4heKtO0HQNDsJb7W9b1e7WC1sLWNd0k0sjkKiKBkk/zoA+R/2SdM8Y/8FEP2odL/AOCnnxG8M6lovwq8F6Ze6b+yz4X1i1a2utTjvEEV/wCNLqBgHj+1wgQWUcvS2zN5amRJZQDV0a7tU/4ODNd057mMXE37EWlywwFxveNPGV8ruB1IUuoJ7bh6igCe9vLRv+DhXQ9NW5jNxF+xBqkssAcb0R/GdiEYr1AYo4B77TjoaAPs2H71AHK/FP8A5Bcn/XzD/wCj0oewdUfJnwXP/F9PDw/6tW8Hf+n3UKyh8Mf66FS6n0T4a+9+da9DP7R6D4Z6rQUd1Yf8ey0AcB8Tf+QzZf8AYasf/SuKpn8I4/Ej4c/Y8Ofgv+z+cf8ANHYf/TwtT/y8XoEvhfqfa3hc50hCPStCVoi5J2oGcX+0V8d/AP7LvwC8Z/tIfFOS6Hh3wN4au9a1ZLCNXuJooIywhhV2VWlkbbGgZlUu65YDJAB8e+KP25P+CvXwY+C8v7c/x6/Yb+DyfCGx0SLxB4m+HPhTx3qk3j/w/ojKJJriSS4t49OuZraAmeSFfLLBCuYyGKgHtX7X37dF78ING+FPgz9lnwDp3xL+I/x81F7b4RaPf6ydN0yezisRqF3rN5cFS6WdtaPHM8aL50nmKiAHJAByHwk/a/8A24/hN+0/4E/ZX/4KP/Bb4W2b/FmHVE+HXxE+Ceu6ncaR/adhbm6l0m/t9UiSeGZ7ZJJI5lYo7KsYViXaMA+taAOY+LPwS+Cnx+8LxeB/j38GPCHjrRIL9L6DRvGvhi01a0iukSSNJ1hu45EWVUllUOBuCyOAcMQQDztP+CZv/BNQ9f8AgnJ+z/8A+GV0H/5EoAS4/wCCZ3/BNWO3kkT/AIJyfs/grGxB/wCFK6B1x/16UpaRZUEnNJ9yb4Z/sU/sVfCH4qaX48+Ef7F/wf8ACevadJL/AGdr3hj4W6Pp99al4ZI3MVxb2ySR7kdkO1hlWYHgkVxzqTbtc9SlRpKjz21Py78KEj/gqR8a8N1+NfiTH/gxmr8oxz/4ymr/AImf6I8Jr/jQ+B/69R/I9s/4Ky5P7NxPrtJH4iujif8A3BHjeBP/ACVj+f5M4L/g2ayPGv7QpBxnRfD/AP7lq9Hg1v6pP+ujPz36UUU+JsHf+9+cD9VPhwzFGBP/ACzNfc4Bto/k/OUk1Y6evSPDGv0oAbQAUAeK/t3/ALA3wS/4KM/Buz+BH7QXiTxrZeG7TXYtVltPBviQacb2aJHWNbjMUizRoX8xVI4dVYHIoA4fw1/wSi8NeHPEOn+I4/8Agot+2ZfNp99Dciy1T9pbUp7a58tw/lTRlMSRtjayn7ykjvQB6F+1/wDsCfBT9tDV/DnjvxX4q8c+BfHXg0XCeEfiZ8KfFkmh6/pMFxj7RbJcKrpJBIBhopY5FG59u3e+4An/AGOP+CfvwS/Yz1XxJ458LeLPHfjrx34zW3j8W/E34q+LZNc8Qapb2+77PbPcMiJFBEGwscUaKdqbt2xNoB75D96gDlfin/yC5P8Ar5h/9HpQ9g6o+TPgx/yXTw5/2av4O/8AT7qFZQ+CP9dC31Ponw1978616GX2j0Hwz1Wgo7qw/wCPZaAOA+JgzrNl/wBhqx/9K4qmfwjj8SPh39jpQfgx+z+uf+aOw/8Ap4Wp/wCXq9BvWL9T7V8LjGkKPatCS5J2oA+VP+C4v/KID9oj/sncn/pVb0AeXfFL9qL/AIK0fCn9nu//AGs/jr+xr8BdX+CFh4QTVPG/wds9e1S78b2fhtrVPtZmuLmNdKup4bdpZp7bygjJHJGrseSAaP7XOveFPFX/AAVr/wCCcvirwFdw3Gg6ppnxVvdCntoPKjkspfBtpJbsiYGxTEyELgYGBgYoA7L/AIKGf8nn/sRj/quusf8AqNX1AHqH7Svhf/goFr3ijTLj9j340/CPwxosemlNYtPiL4G1HVbma881yJIpLW8hVI/LKDaVJ3KxyQQAAecf8K6/4Ld/9HZ/sw/+Ge1z/wCWdADk+HX/AAW97ftafswf+Gd1z/5Z0AJc/Dv/AILeC2k3/tafswkeW2QPg7rnTH/YTpS+FlQvzq3c0/gb4N/4KiaV8dNDv/2if2hPgXrnhCOa4/tvTPB3w41Sw1CcG2mEXkzT30saYmMTHcpyoYDk1xT5OY9WmqvsLtqx+dPhUn/h6T8ahjr8a/EoH/gxmr8ox/8AyVNX/Ez/AER4S/5MNgf+vUfyPbv+Csw/4xtb2Cf+hCunif8A3BfI8XwJf/GWv5/kzzH/AINyNebwncftM+KovD2q6w2leENIvV0jQ7UT31+YotYk+z28bMgkmk27EQsoZ2UEjOa9Lg1c2Fmv62Z+efSkk6fEWElZu3NtvvA+r/BP/BWHV9PgLp/wSN/bgnyn/LH4G2ZH66rX3mDpezXxJ+h/JWZ13WlZxa9Td/4e663/ANIff25v/DGWX/y2ruPJOm+DX/BSjVfjL8UtE+F1x/wTL/a58GLrV55B8U+PPhFa2Gj6d8jN5t3cJqUhhj+XG4I3JAxzQB9LUAFADk6UASJ0oAni/pQBbh60AW4fvUAcr8Uv+QXJ/wBfMP8A6PSh7Atz5L+DH/JdfDn/AGat4O/9PuoVlD4Y/wBdCn1Porw1978616Gf2j0Hwz1Wgo7qw/49loA4H4l/8hqy/wCwzZf+lUVTP4Rx+JHw5+x1lfgv+z//ANkdh/8ATwtT/wAvV6Dl8LPtXwuc6Qh9q0IRck7UDPIP2/P2btY/bD/Yi+Kv7LfhvXbXTNU8c+CbzTdIvr9mW3ivSBJb+cyqzLEZo41dlVmVGYhSQAQD5K+N37WH7d37VH7I3iX9gXR/+CTfxk8M/F/x18P5vBfiXxJ4rtLC38AaMby0Nlf6jHrkV3KLqGOGSWaJIomeQhUXecbgD0H9sb9lT4u/CLXf2UP2nv2cvh3qPxVuv2Uo9R0XVvA+m3MNpqniHQNS0CHRru8shMwjkvIEt450tSw87cyBwQMgGTo3i34//wDBR39tL4GfFC2/Yp+Knwd+GHwN1fWfE2u618bdDt9F1bXNYuNOksLPT7CwjuJ3aJfPaaS4fCFUZAUYIJQD7joA83/an/a8/Zr/AGI/hdH8af2q/iva+DfC82sQaVFq13p13dK95MkskcIS0hlkyUhlbO3aNhyRkZAPndP+Dif/AIIpj/m/jRf/AAjfEH/yvoAS4/4OJf8AgipJbyRr+3xomWQgf8Ud4g7j/sH0paxZUXaSZv8A7O3/AAWO/wCCYv7VP7Qfh/4Gfs9ftc6X4n8W+IJrldG0W28M6zA9yYbWa4k/eXFlHEmIoZG+Z1B24GSQDxzpzTuenSxFOVHk6nwN4Wwf+CpPxrGP+a1eJMf+DGavyfH/APJU1f8AEz/RThL/AJMNgf8Ar1H8j2z/AIKzZH7Nu31VP5rXTxP/AMi9Hi+BP/JWv5/kzgv+DZsf8Vr+0Ic/8wXQP/ctXocHf7pU9P0Z+f8A0of+Slwf/b35xP1U+G5/dsP+mZr7rAfCfydnW6+R1FekeCNfpQA2gAoAcnSgCVAQuSO9AE8Cs7BUUkkcACgC2sUsL7Jo2RvRhg0AWofvUAcr8U/+QXJ/18w/+j0oewLc+TPgyf8Ai+nhsf8AVq/g/wD9Pt/WcPgj/XQqW7Ponw1978606Gf2j0Hwz1Wgo7qw/wCPZaAOB+JX/Iasv+wxZf8ApVFUz+Ea+JHw5+xyd3wX+ABP/RHYv/TwKl/xF6DesWfanhb/AJA6fStCS7J2oAaehoAjoAKACgAoAkt7u6tGL2lzJESMExuVJH4UATprWsHOdWuf+/7f40AJda1rK2srLq10CI2IInbjj60pfCyoazXqjFTXNaufEsFtcaxdSRl2Bje4YqflbsTXDNvmR69OMFhm0tT8YvCw3f8ABUv41gH/AJrV4k/9OM1flOP/AOSpq/4mf6H8Jf8AJhsD/wBeo/ke4f8ABWQf8Y2n/dT+Yrp4n1wB4vgV/wAla/n+TOB/4NnB/wAVt+0If+oJoH/uVr0ODf8AdKn9dGfA/Si/5KXB/wDb35wP1S+G/wB1v+uZr7rL/hP5NzrdfI6mvSPBGv0oAbQAUAch8evCfxr8dfCbVPCX7PPxps/h34svmhjsPGl74Uh1v+y4/NUzSR2c7pFNKYw6p5hKKzBirYwQD5c/4Jr+Hviv8Kv+Cgn7Wv7PXxB/as+J/wAVdP8AC2m/Di/0nUfiZ4l+2yWs+pWGr3V39mgjSO3s4mfy1EUEaKEhjB3Fc0Abf7cyfEn9pH9ur4O/8E89I+OPjD4feBNb8B+IfHfxIvfh/rL6Zq/iG3sZ7W0tdJS+j/eWlu0tw7z7Pmlj+QFDhwAYvw/8DeJP+Cdf/BTv4R/s1fC747fEPxP8Kvj/AODfFpk8DfETxdca6PC+r6Db2l2t7YXd4z3Ecc8d08clvv2liXJYiMRgH3pB1oA5X4p/8guT/r5h/wDR6UPYFufJfwY/5Lr4bPr+yv4P/TXb+so/DH+uhb6n0V4a+9+da9DL7R6D4Z6rQUd1Yf8AHstAHA/Ev/kNWX/YZsv/AEqiqZ/CNfEj4c/Y6Cj4M/AAZ4/4U3Cf/KwtTvUXoN/C/VH2r4XOdIU+1aElyTtQA09DQBHQAUAFAHj37S/7N3xy+OHiPS9a+E37enxB+EVrYae1veaV4N0LR7uHUJDIXE8jX9tK6uFITCkLhRxnJIB5t/wwD+2T/wBJqvjl/wCEZ4W/+QKAFX9gD9so/wDOav45D/uTfC3/AMgUANuf+Cf/AO2SttIx/wCC1fxzIEbZB8G+F+eP+vClL4WVD416mr8Cv2Rf2lPhh8ddD8b+Pv8Agpx8U/iFpWny3BvPCXiPw1oVvZ6gHtpo1Ej2tpHKux3WQbWGWjAPBNcc5K9rHq04S9hfm+Wh+dHhZT/w9L+NZH/RavEn/pxmr8nx9v8AWqr/AImf6JcJaeA2B/69R/I9v/4Kybl/ZtIz1VM/mK6eJ/8AcEeL4Eq/Fr+f5M8z/wCDcnR9S8Q3H7THh7RfFF3od7qHhHSLWz1vT4o3uNOmki1hEuYllVo2kjZg6h1ZSVG4EZFejwY0sLNtX/4Zn599KaLlxFhIp2fva/OB9feA/wBgr9sG5jPkf8Fmfjbb4j58vwf4YOfzsTX3eCnGS0jY/knNac4W5puXrb9Dov8AhgH9sn/pNV8cv/CM8Lf/ACBXoHjjX/YB/bJx/wApqvjl/wCEb4W/+QKAG/8ADAP7ZH/San45f+Eb4X/+QKAOu+BX7Iv7Sfwo+KWm+PfiJ/wU4+KnxI0eyjuVuvBvibw3oNvZXxkt5IkaSS0tI5l8t3WVdjDLRqDlSwIB78nSgD5L/ZE/5TCfts/9i78Iv/TNq1AFv4iD/jer8Iv+zW/F3/p806gCD9sP/lMn+w3/ANgL4u/+mTSqAPtGH71AHK/FP/kFyf8AXzD/AOj0oewLc+Svgv8A8lz8Nj/q1fwh/wCn2/rOPwx/roU+p9F+GvvfnWnQz+0eg+Geq0FHdWH/AB7LQBwPxL/5DVl/2GbL/wBKoqmfwjXxI+HP2PMj4MfAD/sjcH/p4Wpf8Veg38L9V+p9qeFv+QOn0rQkuydqAGnoaAI6ACgAoAKAPPP2oP2h0/Zf+Fn/AAtOT4B/FL4kj+1YLH/hG/g/4LbXtXHmrI32g2yyRkQJ5eHk3fKXQYO6gD51X/gtBZr/AM4jf29P/EZpv/kygBJv+Cz1nLC8X/Do39vQbkIz/wAMzTdx/wBflJq6sOLtJM6L9nj/AIKTQ/H/AOP3h/4VRf8ABO39rjwP/bMlyP8AhKPiZ8C5NH0Sw8u1mmzc3bXTiIN5flp8p3SSIvGcjkqU7O9z0qGIUqfJyn5++GCf+HpfxsA/6LV4k/8ATjNX5Nj/APkqan+Jn+i3CVv+ID4H/r1H8j3L/grDz+zccn+Bev4V08Uf7gjxPAr/AJK5/M4H/g2dH/FaftCH/qCaB/LVa9Dgz/c6n9dGfBfSkVuJcH/29+cD9Uvhv9xv+uZr7nL9j+TM63R1FemeCNfpQA2gAoA439oDwT8aviJ8I9T8Ifs8/H+L4YeLbmW3bTfGs3gu28QLZKkyPKhsbqSOKXzI1ePJYFN+4cgUAfHngn/glh/wU7+H/wAbPH37RHhP/gtpZW/iz4l2ujW/i/UH/ZU0aRLqPSoJoLILC+pmOLYlxKCUUFtw3ZwMAHvf7Un7Dfjr4/Xfwx+Mvw1/ajvvh78b/hTaTW+ifFCx8IW17aapBeQQw6paX+kSSrFPa3PleYsQlBtpCHjbI5AIP2cP2Dfi/wCGv2nT+2X+2f8AtdS/GHx7pfhu48P+ArTTvA8Hh3QvCOn3LRveNa2cc87SXU7RKHunk3mP93gqqbQD6kg4OKAOV+KX/ILk/wCvmH/0elD2DqfJXwX/AOS6eG/+zV/CH/p9v6yj8Mf66FvqfRfhr7351r0MvtHoPhnqtBR3Vh/x7LQBwPxK41uyP/UZsv8A0qiqZ/CNbo+Hf2PBn4L/ALP7H/ojcGf/AAbrU/8ALxeg38L9T7T8L/8AIIX6VoSXZO1ADT0NAHwL+3D/AMFD/iDpX/BVX9nf9gT4DX+oQaVa/ErR5vjlrumylY4ZNRsb6bSfD8zK2f39vbXN7JEy4ZEtiDw60Ad7+3hrnxt+Nv7Yfwd/4J5fDH4/+KPhb4b8aeFPEfi/4jeLvAN2tn4iurHTWtYbXTrC9KubAPcXBeaVU3siKqso3q4BzPgLTfiv/wAE/P8AgpJ8I/2WLX9q34pfFT4b/tB+F/FskWlfGLxSde1Lwtreg2ltem5tNRlRZjaz28wiNq2QsgaQMchVAPuKK2uZxmC3d8ddiE0AP/s7UP8Anxm/79GgB0en6hz/AKDN/wB+jQA2807UPsc3+gzf6pv+WR9DUy+Fl0/4kfVGHDZ3cfiqB5bWRRvfJZCB9xq4Zv30ezT/AN1Z+M/hdj/w9L+NeP8AotXiQY/7iM1flWP/AOSqq/4mf6G8I2/4gNgf+vUfyPcv+Cr/AD+zcV7bFz+Yrp4n/wBwPE8Cv+Sufz/U8w/4NzfFvhn4fzftNeP/ABtrUOmaLoPhDSNS1jUrkny7S0gh1eWaZ8AnasaMxwCcL0r0eC4uWFml/WjPgPpTzhT4jwcpOyXN+cD6z8C/8F1v+CP2mRE3/wC354Ni3JwGsNT/APkSvvMHSqU17ysfyPmmIo12vZu50H/D+v8A4I3f9JBvBf8A4Aan/wDIld55B0fwh/4LE/8ABL39oH4m6L8F/gv+2n4V8Q+KvEV59k0TRbOzv1lu5trMEUyWyoDhT95gOMdSKAPpGgAoAcnSgCROlAE8X9KALcPWgC3B1oA5X4p/8guT/r5h/wDR6UPYOqPkv4McfHTw2P8Aq1fwh/6fb+sofDH+uhT6n0V4a+9+da9DP7R6D4Z6rQUd1Yf8ey0AcD8S/wDkNWX/AGGbL/0qiqZ/CNfEj4e/Y94+C3wAx/0RyH/08LU3/er0G/hZ9peFuNHQH0rQkuydqAPH/wBvP9sn4e/sAfsk+NP2sfiRCl3b+GNN/wCJPopmKPrWqzHyrKwTaC2ZZ2QMyqxjjEkhG2NqAPzoW8/Z4/Zy0P8AZD1H4kftifDDxP8AE/xN+1mnxD/aD8Uaf8QdMnjTWb3RtSNw0hiuGSC0tQYrOMjZDiJWUKZcEA+wPi4Cv/BcD4Gqe37Ovjfof+olplAGP+2j/wAplf2D/wDsH/GD/wBRzT6APZv2nf2Gfgv+1vr2k+I/il4t+JGm3Gi2MlpaJ4G+J2qaDE6PJvJljspkWV89GYEgcdBQB5l/w5k/ZF/6Kh+0D/4kV4k/+SqAFT/gjH+yKTn/AIWj+0D/AOJFeJP/AJKoAS5/4IyfsjLbSsPih+0DkRsRn9orxJ6f9fVKWkWVBXml5mr8B/8Agmj+zv8AAD476F8WPA3jr4vXmp6NLcNaW/if4ya1qtk5ktZoW822uZ2jlwsjEbgcMFI5FcU5ycrHq06UfY82v3n51+Fxj/gqZ8bP+y1eJPz/ALRmr8px9/8AWmr/AImf6JcJf8mGwP8A16j+R7n/AMFX8j9m4kf3F/pXRxP/ALgeJ4Fv/jLn8/1OC/4NmpHj8b/tBvG5VhomgEEHHbVq9Dgz/c5/10Z8F9KT/kpMH/29+cD9XPhxr2tmFkOsXRAQ8Gdv8a+6y/4T+S85SumdP/bms/8AQWuf+/7f416R4QyfWNWliMUup3DK3DK0zEH9aAKlABQA5OlAEidKAJ4v6UAW4etAFuH71AHK/FPjSpT/ANPMP/o9KT2BbnyV8FyT8dPDX/Zq3hD/ANPt9Wcfhj/XQp9T6L8Nfe/Otehn9o9B8M9VoKO6sP8Aj2WgDgfiX/yGrL/sM2X/AKVRVM/hHH4kfDv7HjZ+Cv7P57H4OQdf+wwtS9aq9BvZn2p4Y/5BK/StCS5J2oA5X4ufBD4JfH/wtF4I+PnwX8IeO9Et79L630bxr4YtNWtIrpEkjS4WG7jkRZVSWVA4G4LI4zhiCAfNf7QH/BGL9hr4ueM/hZ4j8CfspfBPwhZeBviHFr/inTNO+DekqnijTltLmBtMn8mGMGNnmSXEgkTdEp2EhSADuv2zv2N/Hvx68ffDz9pD9nL45x/Db4t/CqbUU8Na5faANT0nVtNv440vdJ1K0EkbSW8vlRFXRw8DBnQbyrKAYPwL/Yu/aM1P9qvTv21/28v2hPC/jXxb4T8MX2hfDTwh8PfCU2k+HvCqXxjGoXyG6nmubq8uIoooSzsqpGHGHyhiAPpygDz39p34jftBfCv4VP4t/Zk/ZdHxf8UjU7eBfBx8f2XhrNs+/wA25+2XqPF+7wn7vG5t/B+U0AfOo/bc/wCCyY+7/wAEEYz/AN3eeF//AJFoASb9tv8A4LJvC6P/AMEEYwpQhj/w154X4GP+vWk7WHFtSTR0f7PH7Tn/AAUi+Ifx+8P+Evj3/wAEkl+GfhW9luRrHjUftIaBrv8AZYW1meM/YbWBZp98qxxYRht83eeFNclSME9GelRqVnT5XHTufn14aOP+Cpfxs46fGvxJ/wCnGavybH/8lTV/xM/0Y4R/5MPgf+vUfyPdP+CrwP8AwziRn/lmv9K6eJ3/AMJ54XgV/wAla/n+pwH/AAbPjHjX9oTn/mB6B/7lq9Dgz/dKn9dGfB/Sl/5KbBf9vfnE/VL4b/db/rma+5y/Y/kvOuh1FemeCNfpQA2gAoA8N/4KM/tR+P8A9kb9le9+I3wc8K6VrXjvXvE+i+EvANjr8jpp39s6rfRWcE12Y/n8iIO8rKvLmMJlQxYAHgn7Qut/8FLP+CZfgXR/2vfjN/wULs/jr4D0HxRo+l/FnwNq/wAHNG8Psun6jqNvp51HSbnTgJluIJriHbbzs0ciO5ZgUAYA+/p7c2l3Jas2TE5Qkd8HFAE8PWgC3BwcUAcp8VP+QTL/ANfEP/o9KHsC3Pkv4K/8l08Nn/q1bwh/6fr+so/DH+uhb6n0X4a+9+da9DL7R6D4Z6rQUd1Yf8ey0AcD8S/+Q1Zf9hmy/wDSqKpn8DGtz4a/Y2O74Ifs+E/9Eag/9O61P/L1eg+jPtbwt/yB0+laEl2TtQA09DQBHQAUAFAGfrfi7wf4Ykih8UeMNI0t51LQJqeqQ25kUEAlRIw3AEjJHrQBR/4Wr8KP+iseFf8AwpbT/wCOUAOj+Kvwo5/4ux4U/wDCltP/AI5QAl38VPhQbSUf8LY8K/6pv+ZltPQ/9NKmXwsun/EXqjM0L4gfD7W/HVnpeifELQL66mkkENrZa3bzSyYjdjtRHJbCgngdAT2rhmnzI9im19WZ+P3hs/8AG0z41/8AZavEn/pxmr8qzD/kqKv+Jn+iPCH/ACYbA/8AXqP5Huv/AAVdOP2cW4/5Zr/Sunij/cDwfAr/AJK1/M8y/wCDcxfFpuv2mV8AyaWmvnwfpA0F9djlexW9MOseQblYSJDD5uzeEIcpu2kHFehwXb6rO+3/AAGfA/Sp9p/rFg+Tf3rX23gfVvgq0/4L7tCf7J8R/sQKdnPnaF43Jx+F1X32D9jy+5f5n8iZmsUpfvWvkbn2H/g4R/6Gj9hn/wAEPjf/AOSq7jygNj/wcIY+bxR+w1/4IfHH/wAlUAJ9h/4ODP8Aoaf2Gv8AwQeOP/kqgDtf2erX/gr3F8WNPf8Aa2179lifwGIbn+14vhjpHimLWmk8h/s/kNqFw1uF8/yi+9SfLDhfmIIAOS/4LM/8m4/C/wD7Ok+G/wD6ekoAZ/wcA/8AKJv4sf8AYd8H/wDqY6LQB9nap/yGLr/r4f8A9CNADoetAFuDrQByvxS50uUf9PEP/o9KOgdUfJHwUJPx38ODPH/DKng/j/uPX9ZR+GP9dC31Po3w1978616GX2j0Hwz1Wgo7qw/49loA4H4lf8huy/7DVj/6VxVM/hY4/Ej4Y/Y0Yn4G/s8sO/wYtz/5V0qP+Xi9Bv4X8j7Y8L/8ghfpWpJdk7UANPQ0AR0AFABQB5l8fP2Lf2Q/2qtT0zWv2mP2Z/BXj280a2kt9JufFWgxXj2kTsGdIy4+UFgCR60AcB/w6B/4JT/9I6fg/wD+ETbf4UAOT/gkB/wSnPX/AIJ0/B//AMIm3/woAbdf8EgP+CU620rL/wAE6fg+CI2II8FW/HH0pS+FlQ+NeqLnwe/4J0fsCfAj4z6P8Ufgr+xr8OfCniTSZZzpmuaF4Yht7q1MlvLE+x1GV3RyOp9mNcU5yva561OlT9hzW1PzO8N8f8FSfjb7/GvxIP8AyozV+T5h/wAlTV/xM/0T4Q/5MPgf+vUfyPdf+CroB/ZxPtGv9K6uJ/8AcEeF4F/8la/mcF/wbQDHjT9oP/sB6B/7lq9Dg3/dKn9dGfB/Sm/5KXBf9vfnE/VH4b/cY/8ATM19zl+x/Jedbo6ivTPBGv0oAbQAUAeNft+fspat+2b+zBqvwb8H/EFPCXiu01nTPEXgTxTNafaItL1zTbuO7s5ZYufMiLxmNxhsJKzBWKhSAeE/GP4Cf8FSP+Cg3h7QP2aP2w/h38GPhr8Mk8UaVqnxX1rwL4yvtavfGMOnXkN9HZabbTW0X9mwzXNtEWeeVpI02kbyrRyAH3XJO91cPcyY3SMWbHqTmgCxD1oAtwdaAOW+KP8AyDJP+vmH/wBHpSewdUfIvwUz/wAL58OH1/ZT8Hf+n6/rOO0f66FS6n0f4a+9+da9DP7R6D4Z6rQUd1Yf8ey0AcD8S/8AkN2X/Yasf/SuKpn8JUfiR8LfsYZ/4Ub+zx/2Ra3/APTulR/y8XoN/Cz7b8LjGkIPatSC5J2oAa2BG8jsqqiM7u7AKqgZLEngAAEknoKAPIvhR+3x+wv8d/iIvwj+CP7Znwt8X+KZN/2fw/4c8d2F5d3WxGd/IjjlJuNqKzN5W7CqScAZoA7n4pfFn4U/AzwNd/E/42/E/wAO+DvDdgyJe6/4p1qDT7OF3OEQzTsq72PCpncx4AJ4oAx/gT+03+zf+1HoF54o/Zq+P3g3x9YabMkOp3HhDxHb3/2GR9xRJ1ictCWCMVDhdwUkZAoA7igDgP2l1/avb4UzD9i2b4ZJ46/tCDyG+LcWpvo/2TLefkaawn83G3Zzt+9ntQB86Lb/APBxj21b9g7/AMF3jr/49QAk1v8A8HF/kv5urfsH7dh3f8S7x10xz/y2pO1tRxvzK250X7PMX/BZRPj9oH/DVl5+yVJ4F825/wCEhHw0tfFqa1j7LN5P2Y38jW+fP8nf5gx5e/Hzba5Knsr6bnpUfrPstbcp+e3h1h/w9L+Ng/6rX4kH/lRmr8lzD/kqKv8AiZ/ozwf/AMmHwP8A16j+R7p/wVc4/ZvGT1jXH6V1cT/8i9HheBf/ACVz9X+pwf8AwbTSxQeL/wBoaaeVY400DQWkkdgqooGrEkk8AAZJJrv4M/3Sp/XRnwf0ptOJMFf+9+cT9Pvhx458CCJifHmhDMZxnWrf/wCLr7vAbH8k5y02jqP+E78Bf9D/AKD/AODu3/8Ai69I8Idb+L/B2o3Mdjp3jLR7meVtsUFvq0EjucE4VVcknAPSgC9QAUAOj70ASJ0oAni/pQBbh60AWrfrQBy3xS40uT/r5h/9HpSewdT5H+C3/JefDf8A2ap4P/8AT9f1nH4Y/wBdCpdT6O8Nfe/Otehn9o9B8M9VoKO6sP8Aj2WgDgfiX/yG7L/sNWP/AKVxVMvhHH4kfC/7F/8AyQ39nkf9UWt//TulTb958hv4X6/5n214Y/5BK/StCS5J2oA8i/bu/Ze1L9tT9kvxj+yxp/xavfBEfjOC0tNT17T7F7iU2KXkE91abEngOy5giktnO/iOd8q4ypAPlz/guP8As/fA34f/APBN+LTv2dfgv4T8KfEbSPH/AIQ039nRvC2gWljqGneJZNdshaw6c8UYZZPIS4YqPvJG5IyoIAO5/bH8BeCPjr/wWU/Z2+FHxa8M2HiTwn4a+G/jjxlpXhrV7ZLjT21qOewtIL2W3cGOd4YpHMJkVvKdt6bW5oAwvj54D8BfA3/gt1+yl4x+DvgbR/DGpfFfwX8StB+ItxoWnR2g1+x03S9Pv7FLlIgqSNDcfMshG/CqpYqigAH0Z+0T+2/+x7+yLqGk6V+1D+0n4S8BXOuwSz6PB4k1HyGvI4mVZGTg5Cl1B+tAHnH/AA+f/wCCS3/SRL4Wf+FD/wDY0AOT/gtB/wAElRnP/BRL4Wf+FD/9jQA27/4LP/8ABJZ7WVF/4KJfCwkxMAB4h68f7tKXwsqDSqJvujQ+C/8AwUv/AOCe/wC0B8bdG+FHwP8A2yPAfirxNrM1wNK0PRdX824ujHbyzPsXaM4jjdj7Ka4pwnzXsetTq03Q5b6n5q+Hhn/gqV8a8cY+NniTP/gxmr8nzD/kqav+Jn+inBzX/EBsD/16j+R7t/wVcKn9nAAdPLX+ldXE/wDyL0eF4F/8lc/mebf8G5Hhnw742vf2lvBPjDQ7bU9I1rwjo9hq2m3sQeG7tZo9YilhkU/eR0ZlI7gmvQ4KbWFqNb/8BnwX0qYRqcRYOMldPm/9KifZ3gL/AII7f8EqL6Mi9/4J8fC2bEZx5nh0H/2avvMFUnNe87n8jZrRo0bckUjov+HM3/BJj/pHZ8Kf/CbH/wAVXoHjG58M/wDglv8A8E3/AIKeP9J+K3wh/Yi+HXhvxLoV2LnR9c0nQhHcWcwUqHRs8HDH86APdqACgB0fegCROlAE8X9KALcPWgC1b9aAOX+KIB0uXP8Az8Q/+j0oewdT5G+C3/JevDf/AGal4O/9P1/WMNo/10Kl1/rqfR3hr7351t0M/tHoPhnqtBR3Vh/x7LQBwPxM/wCQ1Y/9hqx/9K4qmXwjXxI+Fv2M8f8ACjf2eff4MW4/8q6VP/L1eg38LPtvwx/yCV+laElyTtQBl+MvGPg/4deD9V+IXxE8WadoPh/Q7CS91rXNYu1t7Wwto13PNLI5CooHc/zoA+Rv2bPC3xF/4KY/tLeHf+CiPxC8C61o3wQ+HYnf9mbwjrenywXPia9uIvLm8b3tqwBijaE+XpscwMgjdrpViLo0wBo/HG+tNC/4Lgfs6f21cJa/8JD8DfH2laH57bft99Fc6bdSW0WfvyLApkKjkKM0AZv7YaHUv+C1f7E3h/T2Wa/0Hwv8VtW1yxjYGawsLjRbG1t7mZPvRxSTo8SOwAZ0ZQSQRQB9f6houiau0b6xoVjeNECImvLKOUoDjIG9TjOB09KAIP8AhD/Bn/QlaL/4J4P/AIigBY/B/gzn/iitF/8ABPB/8RQA278H+DPsk3/FFaL/AKpv+YPB6H/YqZfCy6f8ReqMrS/Dnhmw8aWt7YeGNMt5o3kMc1vp0UbpmNgcMqgjIJHHYmuGfxI9iml9WPxx0BT/AMPTPjWF7/GzxJ/6cZq/KMw/5Kmr/iZ/onwdp4DYH/r1H8j3b/gq5hf2cgP+mS/0rr4n/wCRejwPAtf8Za/VnC/8G0I/4rX9oPn/AJgegf8AuWrv4M/3Sp/XRnwv0p1biXBf9vfnA/VD4bnKN/1zr7rL9j+SM63R1FemeCNfpQA2gAoA5H46/FbWPgp8Lr/4h+Hfgr4y+IeoW9xa21h4Q8B2EU+o301xOkCY86SOKGFDIJJZ5HCxRI7nO3BAPFP2Df20v2mv2jf2hvjX8Av2oP2avDnww1f4Xaf4QvbXQdF8XnXLiNNbtb+4MN3doiW8ssa2kf8AqE2AyMA8gAYgGz+2r+1/8b/hP8UPh9+yT+x58HNB8Z/F/wCJ1nqeo6bJ401iay8PeGNH09Y/tOqak9sj3EqGWaKGOGEBnYud4KKkoBk/s1ftg/theE/2o9G/Yk/4KRfCX4c6N4u8beFtR1/4aeOvhBrF/ceH/EK6e0f2/TGg1FBdW15BFNFcFiWikjcgFWUBwD64t+tAHLfFL/kFy/8AXzD/AOj0oewdT5H+C3/Je/Df/ZqPg7/0/X1Zx+GP9dC5bM+jvDX3vzrToZfaPQfDPVaCjurD/j2WgDgfiZ/yGrH/ALDVj/6VxVMvhHH4kfC37GP/ACQ39nkf9UYt/wD07rU/8vV6Dfws+2/DH/IJX6VoSXJO1AHm/wC1T+yV+zv+218IJ/gL+1J8OT4q8I3Oo299caN/bl/p6yTwbjEzSWM8MrBSxOwttJwSCVBAB8/y/wDBAr/gknOpSf8AZb1d1ZdpD/GPxgQRjGP+Qv0xQB75+1D+yN+zf+2h8PLf4W/tMfCy18TaRYapDqekk3tzZ3el3sRzHc2l3ayR3FtKOhaORdwyrblJBAMD9lz/AIJ+fsi/sa+Idd8b/AP4UyWfifxPBHb+IvGHiDxDf61rF/AhUpA15qE80qQgpGfKjZEYxIWUlFIAPZaAOE/aQ+Hnxx+KPwruPCH7O/7S83wk8TyX0EsPjODwTYeIGigRiZYPsd/+5PmAgb/vLjI70AfO6fsQf8FcDn/jfVqv/iKng+gBJ/2If+Ct6Qu7/wDBenVSAhJH/DKng/kYpPRFRV5JG/8As/fsyf8ABQz4d/HvQPFnxw/4KzXvxM8MWUlz/a/guf8AZ78N6KNTDWsyRj7bZHz4NkrRy5T73lbDwxrkqSg3ax6NClVVPmctOx+d+hsR/wAFS/jXx/zWvxJj/wAGM1fkmYf8lVU/xM/0c4O18BsF/wBeo/ke7f8ABWDP/DOq4b/lkuRXXxP/ALgjwPAr/krZerPN/wDg3O1PXNEuv2mdc8M+FJde1Ky8H6TcaboVvexW0mpXCRaw0Vqs0xEcTSuFjDyEIpbLEAGu/gqzws03b/hmfBfSrco8RYNxV372nzgfXHgX9sf/AIKXW0JNp/wRG8UXGY+dv7R3g1cfnPX32ChCK92Vz+Q80qVZv34cvzT/ACOg/wCG0P8Agp7/ANIM/FX/AIkn4L/+P13nkCN+2f8A8FPCOf8Aghn4q/8AEk/Bf/x+gBP+Gzv+CnX/AEg08Vf+JJ+C/wD4/QB1/wACP2l/25PiN8UtO8HfG3/glh4g+GPhq7juDfeNb341+GNZisGSCSSJWtLGZp5PNkVIQUB2mUM3yhiAD6Aj70AfJf7In/KYT9tn/sXfhF/6ZtWoAufEX/lOl8If+zXPF/8A6e9NoAr/ALYf/KZL9hz/ALAXxc/9MulUAfaFv1oA5b4o5/suXP8Az8w/+j0oewdUfI3wV/5L34b/AOzUfB3/AKfr+so7R/roy5dT6P8ADX3vzrXoZfaPQfDPVaCjurD/AI9loA4H4l/8hux/7Ddj/wClcVTP4WNbo+F/2M/l+CH7PYP/AERm3H/lXWp2qr0CXwM+2vDH/IJX6VoIuSdqAGnoaAI6ACgAoA8j/ae/bP8Ahv8Asm3uiWHj34X/ABU8RPr0NxLav8OPhlqHiFLcQtGGFw1ojeST5g2hvvBWx0oA8t/4fE/s7/8ARs/7UH/iNmv/APxmgBU/4LFfs7j/AJtn/ag/8Rr1/wD+M0AJc/8ABYn9ndraRR+zP+1BzGw5/Zr1/wBP+uNKXwsqGk0/M1PgT/wUg+Dfx6+O+hfCrwr8D/jrpF/rEtwtvqHjH4KatpGnQ+XazTHzrq4jEcWVjKrk8sVUda4pwd7nq0qi9hy2f3H5xaKcf8FSfjWR/wBFt8Rj/wAqM1fk+Y/8lRV/xM/0Y4M18B8D/wBeo/ke8f8ABV3Dfs7IP+mS11cT/wC4I8LwKV+LJerOH/4Nox/xWn7Qee2haB/LVq7uC/8Ac6n9dGfBfSp/5KXBf9vfnA/U/wCG4+Vv+uZr7vL3ofyRnXQ6ivTPBGv0oAbQAUAcp8b/AIna98HPhjqHxE8M/BTxd8Q72ylt0i8JeBbe3l1O8EkyRloluZoYyEDGRsuMKjEZoA+FPgd+0R+1Z8Lv27v2h/2ptc/4JGftKXGgfFvSPA9t4fsbTRdFN5aPothfW1ybhW1MIA7XKGPYzkhW3BTgEA9h/a90L9o34f8A7UHwT/4KXfBj9mXxL4/sNA+H+reFfih8MNImtR4n03TNU+y3sd1ZW7zLDd3NtcwGKa3WYlty+Xld8sYBT+EcHx//AG+v+ChHwx/bK8W/sl+PPgx8NPgZ4O8TWnhyL4r2ttY+IvFOua5Ha2s6f2dBPObazt7e1Did3BkkkCqrDeYwD7jt+tAHLfFP/kFyf9fMP/o9KHsC3Pkb4K/8l88N/wDZqPg//wBP19WUPhj/AF0Kl1/rqfR/hr7351r0M/tHoPhnqtBR3Vh/x7LQBwHxN/5DVj/2G7H/ANK4qmXwlR+JHwx+xoCfgj+z0D/0RuD/ANO61G9RegP4X8j7a8Mf8glfpWpJck7UANPQ0AR0AFABQA5Jpov9VKy567WxQA77Xdf8/Mn/AH2aAHR3d1z/AKTJ/wB9mgBt3d3X2SX/AEmT/VN/GfQ1MvhZdP8AiL1Ri29xcP4pgV53ILvwWP8AcauGfxHsU/8Adj8XtFYL/wAFSvjWR/0WzxHx/wBxGavynMH/AMZRV/xM/wBFeDF/xofA/wDXqP5Hu/8AwVdH/GO8bDtCua6eKP8AcEeD4FacWS9Tif8Ag2j/AOR0/aDHf+wdA/lqtd/Bf+6VP66M+D+lSv8AjJcF/wBvfnA/U/4b/wCqf/cNfd5fsfyPnXQ6evTPBGv0oAbQAUAOj70ASJ0oAni/pQBbh60AWrfrQBy/xR50yQetzD/6PSh7B1R8i/BX/kvnhv8A7NR8H/8Ap+vqyjtH+ujLl1Po/wANfe/Otehl9o9B8M9VoKO6sP8Aj2WgDgPib/yGrH/sN2P/AKVxVMvhKj8SPhj9jYY+CX7PYz/zRuD/ANO61C0qJeQSXuM+2vDH/IJX6VqSXJO1ADT0NAEdAHiv7YX7bvg79ke58F+Brf4X+K/iJ8RPiXql1p/w7+G3gi3ha/1iS2iEt1O8s7pDa2kCPG0txI2EEgbaQHKgGH+zf+39L8Wfj1d/sl/tB/sveNfgn8U4/DbeIdH8NeLr+w1Gx8QaWkixzTadqenyyW9zJCzp5sPyuiyBgHCyGMA+hqAOH/aJ+Btv+0Z8LLr4V3Pxj+IvgNLq7guD4j+FfjCTQtYi8p93lpdxqxWN+jrj5h6daAPnpf8AgjxoR/5yjftyf+JO33/xigBJ/wDgj1oUUDyj/gqL+3IdqFv+Tnb7sP8ArhSbsiormkkb3wB/4J26f8CPjxoPxNtv29P2rPGR0iW5I8N/Eb473Ws6Ne+ZazQ4ubSSFVmC+Z5i8jbIiN/Dg8lSo27WPSo4eMaXtLn5z6Nx/wAFSvjWe3/C7fEf/pxmr8jzH/kqav8Aif5n+jvBq/40Pgf+vUfyPd/+CrwLfs9RADjyRzXZxP8A7gjwfArXiyXqedf8G6Ph5PF9z+0x4Rl1zVdLXVvB2k2LanoOoNaX1mJodYjM1tOvzQzpu3JIOUdVYdK7+Cny4Wb/AK2Z8D9KyHtOIsFFu1+bbfeB9WeCv+CSekarblZf+Cnv7b8eEz+6/aavlH5eRX6BhKrqLZL0P4/zPCxw8rpt+puf8OedC/6Sjftyf+JO33/xiu08o6X4Nf8ABMrSfgr8UdE+Klv/AMFBv2uPFb6JefaB4c8d/H+71TR7/wCRl8u6tHhAnj+bOwkcqPpQB9K0AFADo+9AEidKAJ4v6UAW4etAFq360Acv8UP+QdJ/19Qf+j0oewdUfIvwV/5L54b/AOzUfB//AKfr6so/DH+uhcup9H+GvvfnWvQy+0eg+Geq0FHdWH/HstAHAfE3/kM2X/Yasf8A0riqZfCxx+JHwz+xtz8Ef2e8/wDRHIf/AE8LU/8AL1eg5fCz7Y8L/wDIJX/PatCVsXZO1ADT0NAEdAHyZ8Wuf+C4nwNz/D+zn43K57E6lpoJHpxxQBm/tmu4/wCCyH7CahyAdL+L4IB6j/hHtOOPzoA9t/ac+PHx/wDgpPocXwP/AGHPFfxkTU47ltUk8M+L9I0v+yDGYhGsg1GaPzPNDuRszt8o56igDy3/AIbr/b2/6Qi/Fb/w7fhH/wCTKAFj/bq/b35/40i/FX/w7nhH/wCTKAEu/wBun9vZrWVT/wAERviqoMbAsfi54R446/8AH5Sl8LLp/wAReqNP4F/tV/tafEn47aH4N+Jn/BL3x98O9FvpbgX/AIu1r4h+Hr6204JbTSIXhs7h5pN7okY2rwZATwDXFOMebc9WlOfsLcunfQ/N7RiP+HpPxsH/AFW3xH/6cZq/Jsx04pq/4mf6M8Gf8mHwP/XqP5Hu3/BVrj9nqME4PkA/pXVxP/uCPB8C/wDkq5epxn/BtL/yOn7QeP8AoBaB/LVa7+Cv9zqf10Z8H9Kr/kpcF/29+cD9TfhvwjD/AKZ193l+x/I2dbo6ivTPBGv0oAbQAUAeeftUftS/Cb9jT4H6p8fPjLLqsumWFxbWVho/h7Tje6rrmo3MoitdOsLYMpuLqaRgqJuUD5mZlRGYAHj/AIO/4KbeJ9D+LXgb4V/ti/sH/Ev4GQfFHXo9D+HfivxPq2lappeoatKjPb6bdyafO7abeThSIoJlJdlcZGxiADuP2qf279E/Zz+Jfhj9nT4bfAvxj8Xfi34x0q41XRPhz4GNrFJbaVBII5NU1G8u5Y4NOs/N/crNKT5k2EUZyQAWf2TP28tD/aL+J3if9nH4l/Avxh8Ifi54N0u31bW/hz45a1lkutKncxx6pp15aSyQajZ+b+5aaIjy5QUYA4JAPoS360Act8UP+QdJ/wBfMH/o9KT2Bbo+Rfgo3/F//DiY6fsoeDjn/uP39Zw+GP8AXRly6n0h4a+9+da9DL7R6D4Z6rQUd1Yf8ey0AcB8TuNYsj/1GrH/ANK4qmfwscfiR8M/sb8fBL9nsD/ojsP/AKeFqP8Al4vQJfCz7Z8L/wDIJX/PatRFyTtQA09DQBHQB8W/8FA/iDZfse/t7fBL/goN8W/D+tN8I9F8A+KfBXj/AMW6Lo89+nhGa9ks7qyvb2G2SSYWsrwSQmVEZY32hiC6BgDl/Bn7Qfwo/wCCnv8AwVM+BPxz/Yx1fUfFnw4/Z78J+OJ/G3xHGg3dno8+pa7ZWlha6RaS3UUbXF0ghNxJsUosTL85bKgA++qAH29tc3b+Va27yNjO1FJP6UAWU0TWRnOlXP8A34b/AAoAZeaJrJs5gNKucmJsfuW9D7VMvhZdP+JH1Rix6Pq1t4nhmuNMuEQO+WeFgB8jd8VxTTUkevSaeGZ+K+jjH/BUn42ZP/NbPEZH/gxmr8nzH/kqan+Jn+i/Bn/Jh8D/ANeo/ke7/wDBVok/s8wn/piP6V1cT/8AIvVzwvAr/krJev8Amed/8G6XifS/BM/7THjTW47t7LRfB2k6heJp9jJdXDQwxaxK4ihiVpJpNqnbGgLMcKASQK7+CU5Yaol/WjPgPpWzVPiLBSfTm/OB9a+BP+CyX7GthGWn8L/Gw5j48v4AeJX/AJWdff4KnKmtfzP5DzWtCrblv801+Z0P/D6P9iv/AKFf44f+I8+J/wD5CrvPGEf/AILR/sWEceFvjgf+7evE/wD8hUAM/wCH0X7Fv/QqfHD/AMR68Tf/ACHQB2HwH/4KY/szftH/ABU034OfDjw/8U4NY1WO5e1m8S/BzXdJslEFvJO/mXV1bJDFlImC7mG5iqDLMoIB6r8V/gP8H/jwnhZPjB4Et9dHgjxxpvjHwp9ouZ4v7O1ywMhtL1TDIm5ozLJ8j7o23EMrCgD5t/4Kb6knxz+On7OH7AfgeVLrxPrvxh0f4k+LI41LtofhHw7M91c30zJlrY3F0ILS3kYbZJTIgOVxQBoaSRN/wcD+Irh0G/8A4Yn0kKccqD4yvyQPQZ/lQBNfIg/4ODNAkCDc37EmrBmxyQPGVhgfqfzoA+ybfrQBy/xP/wCQfJ/19Qf+j0pPYFuj5B+CZ/4yB8OZ7/sn+Dv/AE/39RH4Y/10KfU+k/DX3vzrToZ/aPQfDPVaCjurD/j2WgDgPibj+2bLP/Qasf8A0riqZ/Axrc+GP2Ns/wDClP2ej/1R+HP/AIOBU71V6FS+B+qPtnwt/wAgla0ILsnagBp6GgCOgB8FxcW0nm207xsOjIxB/SgBbi8vLwg3d1JKR08xy2PzoAjoA4j9on9mz4Efta/Cu8+CH7SPw0svF3hO/uoLm80S/uJ4o5JYZBJE26CSNwVYA8MAehyOKAPndf8AggD/AMEZW6/8E/fCf/g61f8A+TaAEuP+CAX/AARmjt5JF/4J/eE8rGxH/E61f0/6/aUvhZUFeaXmbf7P/wDwSN/4Jpfsx/HvQfjX8Af2QPD3hfxXoMtw2ka3Y6pqUklsZbaaCTCzXTo2YpXX5lP3sjBAI451Jt2uepRoU1S57an51aQx/wCHpfxrAP8AzW3xH1/7CM1fkmY/8lRV/wAT/M/0c4M/5MPgf+vUfyPeP+CrH/JvcIzwYRn8q6+JtMAjwPAvXiuXqcZ/wbSMy+N/2gmQkEaFoOCD/wBhWu3gr/dKn9dGfCfSq/5KXBf9vfnA/VP4b6jqARgL6b/Vn/lqa+9y/Y/kXOuh1H9paj/z/wA3/f0/416Z4Ij6lqOP+P8Am/7+n/GgBn9paj/z/wA3/f0/40AJJe3ky7JruV1PZpCRQB89f8FKv+Cinwx/4Jl/s03Px98feD9W8T6neXo0vwd4T0e3kL6vqbRSSJHLMqMLaBVjZ5JSCQqkIkjlUIB8kf8ABO3/AIKTf8Exfhv4p1j4ofG/9uX/AIT39or41axZx+N/E1h8IvF1tp1sd6xWHh7SFn0pfs2mWxcIjSFZJnLTTEfIkQB6x+1z8bfCX/BPv/grTpP7bH7UNrqWifBvxp+zpF8PZfiNZ6PdX9loPiG18RTX8dvqAtYpGtoriG6URTMMM6MMbUkdACb9j345eEf+CgH/AAVt1n9t79l+01PW/gz4K/Zyl+Hy/Ee80e6sLLXfEN14ih1CS308XUUb3MdvDasJZVGFd1GNrxu4B992/WgDlvij/wAgyX/r4h/9HpQ9hdUfIXwU/wCTgfDf/Zp/g3/0/wB/WUPhj/XQ0l1PpPw1978616GX2j0Hwz1Wgo7qw/49loA4D4m/8hmy/wCw1Y/+lcVTP4GNbnwx+xsc/BL9nvj/AJo/F/6eFqf+Xi9Bv4H8j7Z8L/8AIJX/AD2rQkuydqAGnoaAI6ACgAoA8q/ab1b9ujS20H/hizwJ8INbEgu/+En/AOFreJNV0/ySPJ+zfZf7Ptpt+c3Hmb9uNse3OTQB5X/wln/Bc7/og/7IX/hyvFP/AMraAFXxZ/wXQ7fAb9kL/wAOV4p/+VtADbnxZ/wXP+zSb/gP+yHt8tt2PiV4pzjH/YNpS+FlQvzq3c1PgZ4g/wCCqV98ddCtv2jvhP8As66Z4OeW4/ty88DeNdeu9UjX7NMYvIiurKOJiZvKDbmGELEc4rjn7PmPVpOt7HW1vxPza0shf+CpHxrYdR8bvEf/AKcZq/JMx/5Kmp/iZ/o3wXr4EYFf9Oo/ke8/8FWCP+Ge4M/88V/pXVxP/wAi9HgeBf8AyVc/VnGf8G0o/wCK0/aD/wCwFoP8tVrv4K/3Op/XRnwn0qv+SkwP/b35wP1O+G3MLH/Y/pX3mX7H8i510Onr0zwRr9KAG0AFAE1neXdoWa0upIiepjcrn8qALK6xq7KQ2q3JB65nb/GgBbS6ubZi9tcSRkryUcjP5UAWzc3Fywa5neQjgF2Jx+dAE9v1oA5b4o/8gyX/AK+If/R6UPYOqPkH4K/8nB+Gx/1ad4N/9P8Af1nH4Y/10KfU+lPDX3vzrToZ/aPQfDPVaCjurD/j2WgDgPib/wAhmy/7DVj/AOlcVTP4WNbnwx+xuM/BP9nsf9Ufi/8ATwtR/wAvV8xv4H6r9T7Z8K8aQorUkuydqAGnoaAI6ACgAoAKAMH4lfFT4WfBbwfcfET4z/FDw34O8PWkkcd3r/izXrfTbGB5HCRq89y6RqWYhVBbkkAUAeZp/wAFMf8AgmmOv/BR79n/AP8AD06D/wDJdADbr/gpj/wTTa1lVf8Ago7+z+SY2AA+NOg88f8AX3Sl8LKh8a9USfDL9tz9ib4v/FrS/h/8Iv20PhD4s1/UZJhp2heF/ibpOoXt0UgkkfyoLe4eSTaiO52qcKpJ4BrinGV1oetSqU3h+W+p+VemED/gqN8bD/1W3xH/AOnKavyXMv8Akqav+Jn+jXBOvgTgf+vUfyPef+CrCj/hn23JP/LEf0rr4m/3BHg+Bb/4yqfqee/8G6Nj4i1S4/aX0vwd4li0XWLrwdpMOkazPpq3iafdNFq6w3DW7MgnWNyrmIsocLtLDOa7+CLLC1G1p/wGfA/SuU3xFglF2fv679YH1p4F/Za/4K1zwlbH/gsh4Zt8Jzu/ZN0l8/8AlUFff4OVOS92Nvnc/kDNIVoP95Pm+VjoP+GUf+CvX/SaHwv/AOIjaT/8tq7zyDovhJ+zr/wUv8IfEzRfE3xk/wCCp3h/xv4Xs7zzNb8J2v7NWm6PJqcO1h5S3sWoyPbnJB3qjH5cYwTQB9F0AFADo+9AEidKAJ4v6UAW4etAFq360Act8Uf+QbJn/n5g/wDR6UdA6o+Qvgrj/hoLw3/2af4N/wDT/f1lH4Y/10LfU+k/DX3vzrXoZfaPQfDPVaCjurD/AI9loA8/+J5xrFmf+o1Y/wDpXFUy+Fjj8SPhr9jsCP4Jfs9Ef9EdgPPvq6mo/wCXq9Bv4WfbHhf/AJBK/wCe1akl2TtQB47+33+0l42/ZG/ZA8a/H74YfCubxt4p0e0tbbwt4XjjkZL3Ury8gsrczeWQwgjkuFmlwyExxOA6EhgAfLP7SPjz/gq3/wAEyfhFd/t2ftJftx+B/jL4K8M6ppR+KPwpsPg1a6Eunabd3sFpcS6LqVvMbi4mt5biPyxdqFljV3fDARsAez/t5fHT9qO0/aM+GX7Av7GPijw34T8ZfEfT9d1vxF8TPE+hf2tH4V0HSxCjy2uns8cd3dzXFxGiCVjGio25f3gkiAOV+Cnxi/bW/ZT/AG1/AX7EH7bf7Qfh340aT8ZPC+v6l8OPiRpngGDwzqtjqmjRxXN9pt9Y2kj2z2xtJkkiuEIk8zcjLjBAB9i0AZnjDwT4J+Inh+bwl8RPBWjeIdJuHR7jStf0qG9tZWRg6M0UysjFWAYEjggEcigDkE/Y/wD2QDn/AIxF+FP/AIbbSf8A5HoAbd/sgfsgraSsv7I3wpBETEf8W20r0P8A070pfCy6avUS80QeDP2dP2c/AvxI0/xX4F/Z1+H+h6rZSSmy1TRPBGn2lzbloZI2McsMKumUZlO0jKsQeCa4ZyfMj1qUIqhdLU/I7Th/xtH+Ng/6rZ4j/wDTjNX5NmVnxRV/xM/0a4K/5MRgf+vUfyPeP+CrDf8AGP8ABH6wL/Surif/AHBHgeBa/wCMqn6s4/8A4Npz/wAVn+0F/wBgHQf5arXfwV/ulT+ujPhPpWf8lJgf+3vzgfqZ8N/uP/1zNfeZfsfyJnW6Oor0zwRr9KAG0AFAGV48+IHgX4T+BdY+J/xQ8Yad4e8OaBYSX2t65q90sNtZW6DLSSO3AHQAdSSAASQCAeBfA3/gsJ/wTw/aE+I/hz4UfD/446ha6v41/wCREPizwLrOh2nijgEDT7nULSGG4ZtybU3B3LqEVicUAem/tS/trfswfsT+HNH8R/tLfFSLQT4k1BtP8L6PaaZdajqmt3ShS0VpY2cUtxOV3RhmVNiGWMOy71yAM/ZN/bz/AGVP21n8Q6d+zz8TJtQ1jwhcRQ+LPC+t6Be6Pq+kNKgaJp7K+himEbg/LKqtGTlQ24EAA9qt+tAHLfFH/kGS/wDXxD/6PSk9g6o+Q/guuP2gfDeP+jTvBn/p+v6zj8Mf66FvqfSXhr7351r0MvtHoPhnqtBR3Vh/x7LQB598UuNWsz/1GrH/ANK4qmXwscfiR8PfseAD4Kfs9hv+iNw/+nZaj/l6vRjfws+1fCv/ACCFrUkuydqAESWWEl4pGU46qcGgD4p/4KGXdl+3h8evC3/BJHwHDFqukR6xo/jb9p2/WPzbbQvC9ncx3tjoszcBL7VLqG3McYbzUt4WmMbRNuAB0fxkne6/4Lj/AAQuZfvSfs8eOWbHqdS0w0AYn7aH/KZT9hD/ALB/xg/9RzT6APdf2nfhn+158Rl0Efso/td6F8KTZG7/AOEhOt/CiDxR/au/yPs+zzbu3+zeVsnzjd5nnDONgyAeU/8ADM3/AAV8/wCkvPgT/wARQsf/AJb0AKn7Mv8AwV8Of+NvPgT/AMRQsf8A5b0AJdfsy/8ABXsWspf/AIK8eBCPLbIH7KNjzx/2F6UvhZUL869TU+BnwQ/4KK+D/jpofiH47f8ABRPwp468LW0tydX8L6b+z/aaJNfhraZIwt4mozNDtlaOThDuEe3gMTXFNxvserSjVVG/Np2sfmvpwJ/4KjfGzPT/AIXd4jx/4MZq/Jcy/wCSoqr+8/zP9HeCf+TEYF/9Oo/ke8/8FWBn4AW/HPkrzXVxN/uKPB8C7/60z9WcP/wbia5ofhjWf2jvE3ibW7LTNM03wro13qWpaldpb29pbxJq7yzSyyEJHGiKzM7EKqqSSAK7+CE3hKiX9aM+C+lfKMOI8FKTskp/+lQPvDwJ/wAFHf8AgnLp0bNff8FEPgFFlMDf8adAB/8ASyvv8DTqQj7ysfx9mtejWa5JXOh/4eY/8E1f+kjf7P8A/wCHq0D/AOS69A8ca/8AwUw/4JrEcf8ABRr9n/8A8PVoH/yXQA3/AIeXf8E1/wDpI1+z/wD+Hq0D/wCTKAN74a/tufsT/Gjxla/Dj4NftnfCHxh4jv0lax8PeFPidpGpX9ysUbSyGO3t7l5JAkaO7bVO1UZjgAmgCX9rH9lL4X/tp/Bw/Ab4z3erDw1N4i0rV9T0/S54FTVPsF5Hdx2d0s0MqzWskkSeZHgFgowykZoA+T/+Csf7VnwF/bN1bT/+CTnwC8d/8JP+0RqPxa8OXOn2Fjptwv8Awr86dfQape67NdzRpDCsGnwzx4gkeZ/tWxEbLAAHd+IbmPXv+DkLRIr+JLi30P8AYk1HVPD8dxGH/s28uPGUVtNcQZH7qV7f9yzrhjGSpOCRQBs/FGytNP8A+C83wZ8TWVskWo65+zL4x07Wb5FxLe2lvq2nzwQyN1ZI5Xd1B6MxPegD7Ht+tAHK/E850qQ/9PEP/o9aHsHVHyN8Fhn9oHw2P+rTfBh/8r1/WUfhj/XQp9T6Q8Nfe/Otehn9o9B8M9VoKO6sP+PZaAPP/ij/AMhay/7DVj/6VxVM/hY1ufDf7Hpx8GP2fP8AsjNt/wCndah/xV6FPZ+p9seF/wDkEr/ntWpBck7UAeSftvXv7aVp+zbrlv8A8E/NA8JXnxSvmjtNDvPGuoCCy0qOTcJb4Kysk80QA8uJ/wB2XYM4kVDFIAfKX7HXw4/4Kk/sUfB6b4c/D/8A4Ju/DPWtX1jUZda8deNvEX7TpudX8W65MM3Go3sx0kGSR2ztXO2NcKO7EA9p/bf/AGeP2mLz9oD4Wftzfsaab4Z1/wAbfDKw1nQ9f+HnizWG0618WeH9TWFpreC/8uRbO7hnt43id08tt7FzhBHIAc38HPgd+2f+03+2v4G/bf8A23Pgz4U+EumfCDwtrumfDP4a+H/HC+JNSn1PWY4bfUNSv9QhghtxALWBI4beNS+8s7FQoDgH17QBx3x7+Pvwn/Zi+FmofGr43+I7rSfDWlS28d9fWWg3upSRtPMkMYFvYwzTvmR1GVQ4zk4AJoA+fk/4Ln/8EuQefj94o/8ADH+Mv/lRQA25/wCC53/BLl7aRF+P/igkxsB/xY/xl6f9gik1dFQaU033Nb4Df8FUf2Ef2j/jzoXwc+Dnxd13UvEWuS3K6XZXvwu8SadHKYrWad8z3unRQx4jic/O65xgZJAPHOEk7nq0q1P2HLfX0Z+b+nkn/gqP8bFH/RbfEf8A6cpq/I8y/wCSoq/4mf6O8E/8mJwP/XqP5HvH/BVkk/AW1XPBgH6CurifTAo8HwK/5Kifqzi/+DbrTdN1nxF+0Vo2s6bb3lneeGtFgvLO8gWWG4iddWV43RgVdGUlSpBBBIPFehwTdYSpb+tGfBfSuipcR4FP+/8AnA/Qb4e/sUfsVXUJFx+xh8H3Aj43/C7Rzj/yWr77AznJau5/IGb0qdN+6rHSf8MO/sP/APRk/wAHP/DWaP8A/I1eieKI/wCw9+xAB/yZP8HP/DV6P/8AI1ADP+GHv2IP+jJ/g3/4avRv/kagDX8Dfsvfsv8Awv8AEsPjT4Yfsx/DfwzrVskiW2s+HfAWm2N3CsiFHVJoIFdQyMysARlWIPBoA5v9uj9q9v2IP2bdT/abvfhjdeKNF8PazpaeLI7O9eKTSdIuL2K2utU2xwTPOtssolaJVBZQx3KFJoA+cv8AgtD8cP2efij+yn4Dsfgf8YPBXjD4vat8WvB91+zdN4Y1+11K/fVRrli8l3Ytbu5WD7CLgSSnEOHQMcslAG18b/GXgX4Cf8HB/gn4p/GPxjpXhXwx8Qv2TtU8FeDNc1y9W2tNR1628VwahJp6zOQiS/ZZEdQ7LvLKq5ZlUgGrP8SfAHxz/wCC7XgOw+DfjHTfFC/C39nPxL/wn97oF6l5a6LPqWp2SWVpPPCWjjupBDJILcsJPLXzNu3mgD7dt+tAHK/E7jSZP+vmH/0elD2Dqj5G+Cv/ACcJ4c/7NM8G/wDp+v6yh8Mf66FPdn0h4a+9+da9DP7R6D4Z6rQUd1Yf8ey0AeffFLjVrM/9Rqx/9K4qmXwscfiR8OfsgD/izH7PoH/RGYB/5Vlqf+Xq9BvZ+p9seF/+QSv+e1aElyTtQA09DQBHQAUAFABQA+C4ntpPNtp3jYdGRiD+lAFhNa1g5zq1z/3/AG/xoAbd6zrH2SX/AImtz/qm/wCW7eh96mXwsun/ABF6oxItU1S48UQxT6lO6F3yrzMQfkbsTXDP4kexS0wzPxSseP8AgqL8bMdf+F3eIz/5UZq/Jsy/5Kmr/iZ/o1wQv+NEYH/r1H8j3j/gquc/AW0JPJtwcfhXVxPrgV6Hg+BmnFFRLuzkv+Daj/kdP2gv+wDoP/uVrv4J/wBzqf10Z8F9K3/kpcD/ANvfnA/U34b/AOqb/cNfe5fsfyHnXQ6evTPBGv0oAbQAUAJLb215azWN7axT29xC0NxbzxB45o2UqyOrAhlZSQVIIIJBoA81+Df7Df7FH7PXjWX4l/AT9j/4YeCvEUsckX9u+FvAlhY3ccbgh445YYlaFGBIZIyqsOCCBQB2XxY+C3wa/aB8ESfDT49fCTwx438OzTpcPofi3QbfUbTzlDBJhFOjKsihmCyABl3HBGaAD4F/s7/s/wD7M/hWbwN+zl8DfCHgLRrq7+1Xmm+D/Dttp0VzPsCedKIEXzZNqqu98tgAZwKAO7t+tAHK/E/jSZP+vmH/ANHpSewdUfI3wVB/4aD8OnsP2TvBg/8AK9qH+FZw+GP9dC5bs+kPDX3vzrXoZfaPQfDPVaCjurD/AI9loA8/+KP/ACFrP/sM2P8A6VxVMvhHH4kfDv7HuD8Gf2fv+yNQf+ndaT/jL0G/hZ9reF/+QSv+e1WSXJO1ADT0NAEdABQAUAeV/tP/ALL2r/tLxaBFpX7XXxo+FP8AYTXhkb4P+K7TSzqvn+RgXn2mzufNEXkHy9uzb58ud24YAPJ/+HW3i7/pL1+2p/4dfSP/AJTUAKn/AAS18XH/AJy9ftqf+HX0j/5S0ANuf+CW3i5baRv+HvP7aZxGxwfitpHPH/YFpS+FlQ1mvU1vgV+wh4i+DXx20P4j6h/wUV/ac8dRaXNcM3hf4g/EHT73Sb/zLWaLFxDDpsLyBfM8xQHXDoh5xiuOc7u1kepSpWo83M/TofmxYnH/AAVH+NYHX/hd3iP/ANOM1fkeZf8AJU1P8TP9IOCP+TD4H/r1H8j3b/gqvg/ASzb0txn8hXVxP/uMTwfAx/8AGU1PVnCf8G6lz4msrn9pe98D6PZ6jrcPg7SZNF0/Ub021vdXixauYYpZlRzFG8gVWcKxVSTtOMH0OCLfVal/60Z+f/Sxc1xFgeRXdp/nA+ufAfxh/wCCySRH+z/2CvgZJ8nPm/Hq7XH/AJSzX3+CVNL3Hf5H8gZrKs/4kUvR3Oh/4XJ/wWj/AOjAPgN/4f8AvP8A5VV6B4x0Hwp+KH/BVDWviRo2k/G79jP4PeHvCU94F17WtA+M11qF5ZwbW+eK3fToxK2do2l169aAPoWgAoAdH3oAkTpQBPF/SgC3D1oAtW/WgDlviiANLkH/AE8Q/wDo9KT2Dqj5I+CoH/C+/DrY5/4ZR8Gf+n3UKzh8Mf66Fvdn0b4a+9+da9DL7R6D4Z6rQUd1Yf8AHstAHn3xR/5C1l/2GrH/ANK4qmXwscd0fDv7Hp/4sz+z7j/ojkH/AKeFqX/FXoO3us+1fCv/ACB1rQkvSdqAGnoaAGxwzTbvKiZtoy21c4HqaAFgtri6k8q1geRv7qKSf0oAWW1uYEWSaB1V/uMy8N9D3oAjoA5P45fFHU/gv8LdT+JejfBvxn8QLnTmtxH4S+H+nQ3erXvmzxwkwxTzQowQSGR8yLhI2POMUAeAp/wU6+JY6/8ABHv9sP8A8N/ov/y4oAS5/wCCnfxJa2kX/hz7+2GMxsMn4f6Lgcf9hilL4WVD416mp8C/25vG/wAYfjroXw71j/gnH+0f4Dt9TluBJ4p8d+ENMttLsNltNKDPJBqMzoGKCNcIcu6jjOa4pw1vc9SlUbo25X69D817HA/4KjfGz/st/iP/ANOM1fkmZ/8AJUVf8TP9IOCF/wAaIwP/AF6j+R7v/wAFVlB+AdmeuLcZ/IV1cT/7ijwfAx/8ZTU9Wcp/wbUZ/wCE0/aCz/0AdB/9ytd/BP8AulT+ujPgvpXf8lJgf+3vzgfqX8N/uP8A9czX3uX7H8hZ1ujqK9M8Ea/SgBtABQA6PvQBDd67oOl6hp+kaprtja3mrzyQaTaXN5HHLfSxwvPJHAjENKyxRySMqAlURmOApIAKHxM+Lfwl+Bvg6T4i/G/4reGPBXh6GeO3l17xf4httLskmkOEjM9zIkYdsHC7snBwKALPwn+Lvwk+Ofg6P4i/A/4r+GPGvh6W5kt4te8H+IbbVLJpkwHjE9tI8ZdcjK7sjPIoA6y360Act8Uf+QZKP+niH/0elD2Dqj5L+Ca/8X08PvgcfsqeCh+eual/hWcPgj/XQuW7Porw1978606GX2j0Hwz1Wgo7qw/49loA8/8Aij/yFrL/ALDVj/6VxVM/hY1ufDf7HpH/AApf9n3I/wCaOwf+nhal/wAVeg38LPtfwr/yB1+laEl2TtQA09DQB+Z/7cX7XXxL+MX/AAV5/Z3/AGb/AITAn4V/Cv486PpvxJ1yKbEWqeM7zS7+6g0yMhcSiwsoXaYK52TX4SRAyRmgD1r/AIKAfDfR/wBsL9v/AOBn7A/xn1PVJ/hHqfgPxV438b+DNO1Sazg8WXdjLZW1hbX0lu6StbQPO84iVwrvt3htq7QDlPDn7PHwe/4Jm/8ABWH4D/Cf9i3wxceC/An7RPhbxzbfEL4f2msXU2jG/wBC06zvrLVba3nkf7PdkSG3dkIVohjaGZ2YA/QK3sb28BNpZyy7fveXGWx+VAEv9i6z/wBAm6/78N/hQAqaLrAznSbn/vw3+FADbzRtYNnMBpNz/qm/5YN6H2pS+Fl0/wCJH1RiR6Tqtv4ogmuNMuI0DvlnhYAfI3ciuCfxI9ik08Mz8UrLH/D0f42HHP8Awu7xF/6cZq/Jsy/5Kmr/AImf6N8Ef8mIwP8A16j+R7t/wVVGfgJZ/wDXuM/kK6uJ/wDcong+BjX+tNT1Zy3/AAbSxtJ43/aBSNSzNoWggADk/wDIVrv4J/3Op/XRnwX0rv8AkpMD/wBvfnA/VP4baLrPls39kXX+r6/Z2/wr73L9j+Qs6+JI6n+xdZ/6BN1/34b/AAr0zwRr6JrJHGkXX/gO3+FADf7D1r/oD3X/AIDt/hQAybStTtozNcadPGg6s8LAD8SKAGWsMlxKsEKFndgqgdyaAPyg0/8AaU8e/ti/8HAP7N/x68O6nFJ8ELG4+KHg74PyRqSuuXGk+H8azr8TgFJbe4u7tbSGRHIaPSslUbduAPof4t/Bv4Y/tP8A/BdnR/AH7RPgnTPG3hj4b/snxeJfB/hPxRp8V9pdjrd/4nntLjUvs0ytG9wbe1gjVmBCiNWA3KjKAT/Bj4NfDH9mH/gvFrHgD9nbwTpngjwv8Rv2TpfE3jDwl4X0+Kx0u+1uw8UQWdvqP2aFVRLgW93PGzKAG8xmI3M7MAfd9v1oA5b4pD/iWS/9fMP/AKPSk9g6o+TPgn/yXDQP+zVvBP8A6fNSqIfBH+uhb3Z9E+GvvfnWnQy+0eg+Geq0FHdWH/HstAHn/wAT/wDkMWX/AGG7D/0rhqZ/Axrc+G/2Ph/xZf8AZ+/7I7B/6eFpP+L8hv4H6n2v4V/5A6fSrJLsnagD5x/4Ku/t++H/APgml+w14v8A2n7v7LP4hjVNH+H+mXibo7/xBdLILVHXIDRRCOW6lG5d0VrIoO5lBAPzHP8AwUJ/4JJfs9/D39kH4dfDv9uPTfGeqeAf2g08dfHHxq3hrWftOq6ldaZqB1TWZmlsUkud93OkaD55REIVOdhYAH6HfF1kX/gt/wDAo7xiT9nfxwsTdnI1DTGIGep2849OaAMn9tCKRv8Agsn+wg6xsQunfGBmIHQf8I7pwz+fFAHtf7Vn7B37KH7by+Hl/ag+GV74j/4RU3h0E2XjPWNHNv8AavI8/J027t/N3fZoceZu27Tt27myAeQf8OGv+CUH/Rs+u/8Ah6PGP/y3oAVf+CDH/BKBuv7M+u/+Ho8Y/wDy3oAbc/8ABBj/AIJQJbSOv7NGu5EbEZ+NHjH0/wCwvSlpFlQV5peZtfAH/gk5/wAE/P2avj5oPxo+CnwM1PSPEuhTXLaVqFz8S/EmoJCZbWaByYL3UZoXzHK6/OjY3ZGCARxznJux6lKjTVHn6n5w2p2/8FRPjacc/wDC7fEfb/qIzV+RZn/yVFX/ABM/0h4HX/GicD/16j+R7x/wVWXPwFsjnpbjOD7Cuvif/ckeB4Gf8lRU9WcJ/wAG6/hTw/48m/aY8C+K7N7nStc8G6Tp2p28V3LbvLbzxavFKiywskkZKOwDoyupOVYEA16HBEnHC1Gv60Z8B9LGEanEOBjLZqf/AKVA+qPA3/BC3/gldqULfbP2a9abCcbfjH4vX+WrCv0DBVZ1F7x/HuaYelQfuK3zb/M6D/hw1/wSg/6Nn13/AMPR4x/+W9d55Ajf8EG/+CUIGR+zPrv/AIejxj/8t6AE/wCHDv8AwSh/6Nm1z/w9HjH/AOW9AHZfs/f8Eof2Af2Wfixpvxx+A/wR1bRPFGkRXMen6jc/E3xJqMcazwSW8oNvfajNBJmOVwN8bbSQy4ZVIAOW/wCCzXxj/aL+HH7Gd58OP2WPhJ8SvEPiz4nalH4VuPEHw08B3+vXXhDR5xjUtXMVmufNS2LxQKZImaWZXRx5LYAPj3X/ANrD4PeBP+Chn7Anwx+C/wCwN+0x4L8KfCrRPHfh3RvDniz4I3thqN7b3miWFklxbRMd16IWU3F7OOUEhlfJfJAPsTTJre2/4OEta0mW4T7Rd/sS6c9pEDzMsXjK9EpX1C70z6bh60AS3l1bSf8ABwvo+mJMpuLT9iHUnuoR96JZfGVl5ZYdt3lvj12n0oA+zLfrQBy3xRP/ABLJR/08Q/8Ao9KT2Dqj5M+Cn/JctA/7NV8E/wDp81Koh8Ef66Gj6n0T4a+9+dadDH7R6D4Z6rQUd1Yf8ey0Aef/ABP/AOQxZf8AYbsP/SuGpn8DGt0fDv7Ho/4st+z8f+qOwf8Ap4Wpf8Zeg5fA/U+1fCv/ACB1+laEl2TtQAsF3dWhL2tzJESMExuVJ/KgDzj4+/s7+G/2ivGPwu8a+NPF+vWtz8J/iFF4w0GHTrmMR3d5HaXFqIrgSI5MRS5kyEKNn+LrQBzX7YH7Evw+/bBfwf4s1L4heLvAnj34catcal8O/iV4C1KO21bQ57iIRXUQ82OSKe2uI1RJ7eRCsqLtyATkAwf2b/8Agn3pHwZ+O19+1d8Zv2j/AB98Z/ijc+HD4f03xX49ks4INC0tpRJLb6dYWMMVvamZkjMsuGdtmAUDyhwD6DoA5H46eJvjV4P+F+oeIf2evhFpfjvxbDLbjTfDGs+LF0S3ukaZFlZrxoZRHsjLuBsO4rt4zQB4Iv7Rf/BYnt/wSm+Gf/iUUH/ypoAbc/tF/wDBYk20gf8A4JT/AAzA8tskftRQHAx/2CaUvhZUL869TU+Bfxl/4KP+KvjpoWg/Hr9gLwR4K8K3MtwNY8SaR8dodZuLELbTNGUtF0+IzbpVjjOHG0OW5xiuKahfc9WlKr7G3Lp6n5q2x/42hfG3nn/hd3iL/wBOM1fkeaL/AIyer/iZ/pDwP/yYrA/9eo/ke8f8FV8n4C2XX/j3XP5Cuzif/conz/gZ/wAlTU9Wcr/wbU/8jp+0F/2AdB/9ytd3BP8AulT+ujPg/pXf8lJgP+3vzgfqZ8N/9S3+4a+9y/Y/kHOeh09emeCNfpQA2gAoAdH3oA4vxx+zl8IfiV8cPh3+0Z4x8Oz3Pi74VLra+CdQj1GaJLMataR2l9viRgk++GJAPMDbCMrg80AYP7U/7DX7Ov7ZX/CN6t8YdD1uz8SeC7ma58E+OvBnia70TXvD8kyBJvst9aOkirInytG25Dwdu4BgAWf2TP2GP2df2NG8Sax8H9E1u98S+NbqG48beO/Gnie71vXvEEkKbIftV9du8jLGnyrGu1Bydu4kkA9pt+tAHK/FL/kGy/8AXxD/AOj0pPYOp8m/BT/kuWgf9mq+Cf8A0+alUR+CP9dC31Ponw1978606GX2j0Hwz1Wgo7qw/wCPZaAPP/ij/wAhay/7DVj/AOlcVTP4Rr4kfDv7HoH/AApb9n8Ht8Hocf8Ag4Wp/wCXvyCXwM+1PCv/ACB1rQRek7UANPQ0AR0AFABQBzPxH+NfwV+DSWMnxk+M/g/weuqGUaYfFnimz0z7YYtnm+V9plTzdnmR7tudvmJnG4ZAOX/4bb/Ym/6PS+D/AP4dLR//AJJoAcn7bn7Eo6/tpfB//wAOjo//AMk0ANuf23P2JntpEX9tL4PkmNgB/wALR0f0/wCvmlL4WVDSa9UM8DftPfsw/EL4mab4P+Hv7Tfw38QavfSSix0jQvH2m3l1clYZJGEcMM7O5CI7naDhVYngGuGcZKWx61KcHQaT1PyOtc/8PQ/jbj/ot3iPr/2EZq/JM0v/AK0Vf8TP9H+Bv+TE4H/r1H8j3n/gqv8A8kGsiO9uB+grr4n/ANxieD4F/wDJUVPV/qcN/wAG6uvS+FLj9pfxVH4c1XWW0vwbpN4mj6FbLNfX5ii1eQW9tG7osk8m3YillDOygsM5r0OB1zYWov62Z8B9LKThxFgXZuynot94H1Z4K/4Kq63p9sWi/wCCSP7bdxlf+WPwU0/A/wDKvX6Dg6ahH4k/Q/jrM8RKtKzg4+puf8PaPEP/AEiA/bg/8Mpp/wD8t67jyjpPg7/wUe1r4w/FDRfhjc/8Ezf2tfBqazeeQ3ijx18KLKx0jTvlZvNurhNTkaKP5cbgjckDHNAH0lQAUAOj70ASJ0oAni/pQBbh60AWrfrQByvxT/5Bsn/XxD/6PSh7MOqPk34Kf8ly0D/s1XwT/wCnzUqzj8Mf66FvZn0T4a+9+dadDL7R6D4Z6rQUd1Yf8ey0Aef/ABR/5C1l/wBhqx/9K4qmfwjXxI+HP2PDn4L/ALPx/wCqPRf+nhal/wAVegpfCz7W8KjGkKDWgF2TtQA09DQBHQAUAFAHF/GP9mv9m39ouPTYf2iP2c/AHxBXRWnOjL468FWGsf2eZvL84wfa4ZPJ8zyYt+zG7ykznaMAHD/8Oz/+Can/AEjj/Z//APDK6D/8iUAOT/gmd/wTTPX/AIJxfs//APhldB/+RKAG3P8AwTO/4JqJbSOv/BOP9n8FY2IP/CldB64/69KUvhZUEnNJ9yb4ZfsT/sUfCH4saZ4++Ef7F/wg8J6/pzzf2dr3hf4X6Rp99a74ZI3MVxb2ySR7kd0O1hlWIPBNcU5yclqerSpU1Q5ran5R2v8AylD+No6f8Xt8Sc/9xGavyPNP+Snq/wCJn+kHA3/JicD/ANeo/ke8/wDBVbd/woayyOtsM/kK6+J/9yieB4GJf60VPU5X/g2q/wCR0/aC/wCwBoP/ALla7uCf90qf10Z8H9K//kpcB/29+cD9S/hv9xv+udffYDY/kHOt0dRXpngjX6UANoAKAJII5JX8uKNmY9FUZJoAs/2XqcSGSTT51UdS0LAD9KAH2kE9w4jt4WdsfdRST+lAFr7PcWzhLiB4yeQHUg/rQBYt+tAHK/FP/kGy/wDXxD/6PSk9g6nyb8FP+S5aB/2ar4J/9PmpVEfhj/XQt7M+ifDX3vzrToZfaPQfDPVaCjurD/j2WgDz/wCKH/IYsv8AsN2H/pXDUz+FjW6Ph39j8gfBf9n7Hf4Pxf8Ap4Wpa/er0CXwM+1vDH/IJX6VoIuSdqAK+pajpuj6ZdazrWp21jZWVtJcXt9e3Cww20Mal5JZJHIVEVQWZmIAAJJwKAPlHw7/AMFu/wDgmp4l1/TbG2+OGsWeg63rI0nQ/iJrPw/1mx8K6hfeYY/Ji1ee1W2Hzq6+Y7LF8jHfjkgHuf7Tv7UPwB/Yy+F03xl/ac+Jdp4T8PxalDpsNxc280897fTbvKs7a2gR5rq4cI7CKJGbZHI5ARHZQDiP2aP+CkH7JX7V/wAR7/4K/DTxhr2leOtN0karP4G8eeDNR8P6rLp5bYLyGC/hj+0Q7gQWiLFcZYKCCQD3SgDk/jhYfHXU/hdqdj+zV4o8J6N41drf+x9S8caTc32mRATxmfzobaWOVyYRKq7XGHKk8A0AeBp4E/4Lidv2nP2VP/DT+Iv/AJZ0AJc+Bf8AguGLaUyftOfsqbfLbdj4T+Is4x/2E6UvhZUL86t3NT4GeFP+CpWm/HXQr39ov45fALWPB8ctx/ben+C/h/rFjqUwNtMIvJmuL2WNCJjEW3KcqGA5Irim4XPVpKr7DdW/E/NK1/5Sh/G3P/RbfEnH/cRmr8jzT/kqKv8AiZ/pBwN/yYnAr/p1H8j3j/gqscfAWyHOPs64/IV18T/7kjwfAz/kqKnqzl/+Dar/AJHT9oH/ALAGg/8AuVrv4Jt9Tqf10Z8H9K//AJKXA/8Ab35wP1K+G/3H/wCuZr73L9j+QM63R1FemeCNfpQA2gAoA+S/+C7Xj3xn8Nf+CRXxt8S/Du9vrbXZ9H0rS9Ln026aG4SW+1vT7L926kFW23DcgjjNAHOfs2fso/8ABFi7/aK03Tv2Xv2nYfF3xB8GatHqdjoel/tS6trNz5tm4kMklh/asi3CIUHmxmNkAysi4JFAC/tieG1/bb/4KmeDv+CbHxd8WeJbP4Q6T+z3f/E7xX4Y8LeI7nSv+Ewv212LSLay1Ce1eOc2cClp1ijkTdKQWJ2rgAk/Zx+Cuif8E7f+Cpvh79kD9nHxV4lt/g58VPgnq/iFPhxr3ia91a08Oa5pN9ax/bLCa+lmnhS4huXWWHfhnw5JCRqgB96W/WgDlfih82mSH/p4h/8AR6UnsHU+Tfgp/wAly0D/ALNV8E/+nzUqiPwx/roW9mfRPhr7351p0MvtHoPhnqtBR3Vh/wAey0Aef/FD/kL2X/YbsP8A0shqZ/Axrc+HP2PP+SK/s/f9kgi/9PK1L/ir0CXw/M+1/DH/ACCE+laCLknagD5b/wCC2up6jpH/AASJ/aIvdKvpbaY/DS6hMsMhVjHLLDFImR/C0buhHdWI70AeV/Ff/goZ/wAEq/jf+ytJ+xp8TLzxtoXwQ8Z+GIfAWnfE9fhdqFj4Hgfyls4EsNYubRrOJreaNTDcshto3t1k3lF3UAX/ANsXwxH4Q/4Ko/8ABOn4OTahfanpWi/8LKAXXZluZrm503whbLaXk52hZLlGBkEoUESMzKFJoA63/goZbwH9vL9hzxeYlOq23xi8R6db6iRmaO0uvDV2LmBX6iOTy49y9DsGelAHov7WX/BSr9hP9hTxFo3hH9rj9o/S/BGpeINPkvtHtL/SdQuWubdJPLaQG1t5VUBwRhiCcHAxQB5N/wARCf8AwRc/6P8AfDv/AITGuf8AyBQA5P8Ag4U/4Itj/m/zw7/4TGuf/IFADbn/AIOE/wDgi5JbyRr+354cy0bAf8Uzrnp/14UpaxZUHaaZv/s9f8Fgv+CZf7UXx/0D4H/s/fteaL4o8Wa/Ncro+iWeg6tC9yYrWa4kw89mka4iikb5mGduBkkA8c6c07np0a9OVLkvqfnPbj/jaH8bBnGPjf4jOf8AuIzV+RZp/wAlPV/xM/0i4Gv/AMQJwP8A16j+R71/wVV/5IPZg9fs4x+Qrs4n/wByieD4Gf8AJUVPVnDf8G6+j6j4iuP2lvDujeKLzQ7zUfBuk2tprenRxtcadLJFq6JcxLKrRmSNmDqHVlLKMgjIrv4HaWFqO1/+GZ8D9LOLlxFgUnZ2lr84H1t4C/YD/azuYT5H/BZT472+I+fK8OeGjn87A1+gYKcZrSNj+Pc1pzg/em5etv0Oh/4d8ftdf9Jp/j5/4TXhj/5X13njCN/wT5/a5xz/AMFpvj5/4Tfhj/5X0AN/4d8/tcf9JpPj5/4Tfhj/AOV9AHXfAr9kD9of4S/FLTfH/j//AIKafFv4j6TYx3K3Pg7xTouhQ2N8ZLeSJGke1s45h5busq7XXLRqDlSwIA//AIKSfs8/s/8A7V/7Lrfs9ftP/GGDwZ4N8S+NdAiv7mfUIrb+15Y9Qjmh0pZJHTa9zJGsa7D5mcFQSKAPDv8AgtZ+zx8Avgj+wC/7RPwU+A/g7wX40+C3jfwfqnwy1zwn4ZtdNn0GVvEmmWTwxG3jQm3eC4kRoGzG21CVJRSADrdXhWH/AIOUVjiTCL+wndKoA4AHjuLigDd+Lv8AynK+An/Zu/jrP/gw02gD7Ct+tAHKfE7/AJBUh/6eYv8A0elD2Dqj5O+Cn/JctA/7NV8E/wDp81Ks4/DH+uhb2Z9E+GvvfnWnQy+0eg+Geq0FHdWH/HstAHn/AMUf+QvZf9hyw/8ASyGpn8DGtz4c/Y+5+C37P3P/ADSGP/08rSf8b5MH8PzPtfwv/wAglf8AParEXJO1AHzd/wAFhPh94x+Kn/BK74/+Avh9oFxqusXnw0vpbPTrSMvNceQUuZFjUcu/lwvtQAsxAUAkgUAeOftzftvf8E/vHH/BE3xtJ4D+OngHVdB8afA2Xw98OvCWlanaz3lzqtzpgt9M06DTY2MyXMF0YMwiMPbGB2YJ5LFQDn/2shdfsy/tK/8ABNz49/tQeIbfwz4c+Hum+JvCXxF8W69eBbXSdc1XwXbWdrHdXBysYlurW4QzOQilGZ2VQWAB237XXxj+FPxx/wCCkn7HvwW+C3xG0Txf4i8NeO/EPjDxRZ+FtUh1FdE0aHQLiD7XePbs62qSTTxRRGQr5jsFXJIBAPt631HULRPLtb6aNc52xykDP4UASf21rP8A0Frr/v8At/jQAqa1rBznVrn/AL/t/jQAl1rWsraysurXQIjYgiduOPrSl8LKhrNeqMaPXdaufEsFrcaxdSRlnzG9wxU/I3YmuCbbkrnr0oQWHbS1PxLg/wCUonxsHp8b/ERPP/URmr8lzT/kqKv+Jn+j/A3/ACYnA/8AXqP5HvP/AAVWx/woWz5GfswI/Kuzif8A3KJ4HgZf/Wip6s5f/g2q/wCR0/aB/wCwDoP8tVru4J/3Sp/XRnwf0r/+SlwH/b35wP1L+G/+pb/cNffZf8J/IGdbr5HT16R4I1+lADaACgDz/wDao/Zg+FH7Zn7P3iT9mv412+pf2B4kghEl5ol+bS/065gmS4tr20nAbyriGeKOVCVZSU2urozIwB4FoP8AwS/+PfxE8Z+G3/bu/wCCmfjT44eA/BfiSz1/w78Obn4eaP4etrzULNt1nJq91YgzaskTbZDFJsSSRFdw3zKwB6f+2H+w5d/tL+N/C37QHwd/aI8R/B34xeB7G9sPDPxI8NaZa6iJdPvNpuNO1HT7sGDUbQuolSKQjy5QJFIOcgFX9kH9gDxF8DfjTrP7WX7S/wC1V4k+N/xh1rwvH4YTxlrXh+y0Ox0fREn+0GxsNMsR5NuJZgkksjM7O0SkbMyeYAfTVv1oA5X4oDbpMgP/AD8w/wDo9KHsw6o+Tfgp/wAly0D/ALNV8E/+nzUqzj8Mf66FvZn0T4a+9+dadDL7R6D4Z6rQUd1Yf8ey0AeffFL/AJC1l/2G7D/0shqZfCOPxI+Hf2Pf+SLfs/f9khj/APTytJ/xl6MH8L9Ufa3hfP8AZCgnt/SrEXZO1ACJJJCwlicqynKspwQaAPLPDn7En7Ffg/4qD46+Ef2OfhTpXjZb6S+Txfpvw60yDU0u5Cxe5W5SASLMxZi0oIdixyTk0Ad5408F+CviV4S1HwB8SvBej+JNA1eDyNW0HxDpcN9ZX0W4NsmgnVo5V3AHDKRkA9RQBzPwT/Zi/Zo/Zpt9Qtv2cf2dPAfw/TV/L/tb/hCvCFlpbX2wsUEzW0SGUKWbaHJC7jjGaAO4oAKAHR96AG3f/HpL/wBcm/kamXwsqn/EXqjFtf8AkbIP99//AEBq4Z/Ej2qf+6s/Fa3z/wAPRfjYAef+F3+Iv/TjNX5Lmf8AyU9X/Ez/AEc4G/5MVgf+vUfyPev+Cqxz8BbI+luD+ldnE+uCieB4GacUVPVnLf8ABtV/yOn7QP8A2AdB/lqtd3BP+51P66M+D+lf/wAlLgP+3vzgfqV8N/8AVMP+mZr73L9j+QM63R1FemeCNfpQA2gAoAdH3oAkjoAni/pQBbh60AWrfrQBy3xSOdKkI/5+Yf8A0elD2YdUfJnwU/5LloH/AGar4J/9PmpVnH4Y/wBdC3sz6J8Nfe/OtOhl9o9B8M9VoKO6sP8Aj2WgDz/4n/8AIYsf+w5Yf+lkNTP4WVH4kfDv7Hy4+C37Pwz/AM0gjP8A5WUqX/FXoxS0i/VH2t4XwdIUj0rQRck7UANPQ0AR0AFABQAUAFADo+9ADbv/AI9Jf+uTfyNTL4WVT/iL1Riahcad4Zhu/iD4r1mw0jQtIhkudS1jV71La1toVU7pJJZCERFzksxCjHWuKat7z0SPZoXqRjRgnKUrJJK7b7JLVvyPxN8Da5ovxC/4KIfFj4jeCNTg1XQdc+Luu3+j6vYyh4L21lv5WjmjccOjKQwYcEEEcV+R5g41eJKk4O6cnqtT/SDhCnVwPgng8NiYuFSNKKcZJpp22aaPoz/gqbpOo337P9pdWlsXRLcB2Drgcd8mu7iaEngU0j5fwPxNGnxVUhN2bbtueZ/8G5/xL+G/gv45/Fj4XeNfiJoWja7410rRbbwpp2q6rHBJqssZ1ASR24Y/vpF86M+WuXIbIUgHHVwTOCw84Nq78/U+Q+lZhsVVznC4mFKThTUuZqLstYvVv032P1w8I6Hqvh68k07V7UxSLGcHOVceqnuP8nmv0PBQlTdmfxrmtWnWipQd0btegeKNfpQA2gAoAdH3oAkjoAni/pQBbh60AWrfrQBy3xS/5Bcn/XzD/wCj0oewdUfJnwU/5LloH/Zqvgn/ANPmpVnH4Y/10NH1Ponw1978606GP2j0Hwz1Wgo7qw/49loA8/8AihxrFkfTW7D/ANLIamfwscfiR8OfsfSo/wAFf2fmU8D4RqmfddaRWH4Hj8al/wAVejCXwv5H2t4Wx/ZIAPQVoIuydqAGnoaAI6ACgAoAKACgB0fegCl4z8aeAvhd4D1z4r/FfxHBo/hfw1pc2oa9qdyGKQW0SFnO1QWc4HCqCzEhVBLAVFSpClTc5uyW50YTC4rHYqnh8NFyqTaUUt227JH4q/tWfte/Fn/gqB4//wCEi8Z/bdA+GOm3hfwT8OBNtjRQcJfagqEpcXrLyMlktwxSLrJJL+S55n9fM67p0namtl383/Wh/oR4V+EWU8D5YsZjUqmMmlzS3Uf7sL7JdXo5ddLJelfsi/BzTdK1+K6is1jSMgKAoArlyvDXq87PoeO88ccv9hB6H0T+2x4W0rXvgXLpr7TttzgfhX0OcUo1MFyn474cY6vhOJ1VXc/HS+8BeH9U1jVPDmu2KSCGchNy9Bn9K/MaNerhajUXazP7ozDKsv4gwVOdeCldddT9O/8Agjp/wVX8Y3/jXTf2E/2v/Gsmsy6p/o/wx8earLvu5Zwp26XeStzLIyj9xM53uw8li7PFX6vwvxK8bFUK/wAfR9/L1P8APbx58EY8KVJZxlEf9nbvOC+xf7S7R7rZb6an6Yqx8ySBxiSJtsi+h9foRgj2NfdxkpbH8qVKcqb1EfpVEDaACgB0fegCSOgCeL+lAFuHrQBat+tAHK/FFwdKk97mD/0elD2DqfJvwXZU+Onh9GPP/DKvgnjHT/iealj8/wChrOPwR/roW+p9E+GvvfnWnQy+0eg+Geq0FHdWH/HstAHnnxalFvdw3ZPEGpWszn0VLmNyfyBqZ/CxrdHxN+zHZvonwU+E/npt/smDxdoJGOjaf45htSOOnGeKl6VF6A9mfZfg+USaV17Dr+NaCNGTtQA09DQBHQAUAFABQAUAOj70Afmn/wAHMf7TOpeCvg38Mv2QfD+omJPH2sz694tSKUgyWGnNF9mt5F6NHJdyrL/vaevbr8pxbjHQwCpJ/Fv6I/f/AKPXD1PNOLpY2orqivd0+1LS680vzPjD4B+ILBdOtYVdANowB9K/LKLTqH96ZpCVPDWR9nfADX9DsbITy3SowGRz1r6jBShBH4VxPSxOIqcqWha/aW+L9leeC5rAXgI8sjG72p4/FxlT5bmXCnD9SjjlV5fM/L7x3rkVl8RL24hfiUknB96+AxEf3rZ/XmTVmsvhB9DlPiF4m1BLWHWdB1aex1KxnS60/ULSYxzW1xEweOWN1wVdXVWBHIIGK7srrTo4hSj0PmOPcBh8zyapRqpOMk001fdH9D/7Gv7U0f7U/wCzV8Nf2jZjEt34v8KW8uuRW6bY49QjzFdog7Ktylwi/wCyi1+3YLF+1jGfdH+U/EeRSy3G18Lb+HJ29On4W+89scgqCDx2r2D4kbQAUAOj70ASR96AJ4v6UAW4etAFq360AcX8X7+Oy0OW6lbCxzROxPorhz+imlL4Rrc+XvhNZRL+0bb2qEg6X+zH8NbKcEfdllu/EN0V+uIFP41nHRR/roU9mfQfhsYP51qZfaPQPDPVaCjurD/j2WgDzf43Ws13pOpW9upMklpMsYA5LFCB+tJ7AfGXhhpdI8J+MdMtSNng/wCP3ji0hGf+WOqW8XiyAj2PmIB6ms7/AAsprdH1v8Pb+K807MT7lZdyHPUHBH6VqSb0nagBp6GgCOgAoAKACgAoAdH3oA/Dn/g6DutTh/4KCfDq4mZxZf8ACmbZbfJ+XzRrGqeZj32+Vn2xXwPGKlOcV5fqz+t/o2VaVDD1m9/afhyw/wCCfKXwg+Lf9kCO2muQGT1PWvzumpQkf2Tj3TxFBNH0d4B/aN+y2iouoY46bq7/AKzKEdD5H+xqWKq6oyvjB+0AL3SJFN/kbD/FXDVxUpvU+rwGQUcPDmSPk7xJ4sbVNcmv3c8sdv0zXNKk56nuU8ZDDLkT2MTxHrpk091Mh+6a3wtBxqo8nPsyp1MDJX6H7Z/8EM72/i/4JlfC8XT/ALs6jrpsx/0y/trUc/8Aj++v1TLZONCB/nfx3CFTiHFyXV/5H6D6bMZ9MhlPdRX1lN3gmfiWIjyVpImqzEKAHR96AJI+9AE8X9KALcPWgC1Cdo3HsM0AeQftUatPbfDXW4bE5uH0bUBagdTMbOaOIfjNJEPqRUzfuMcdzyf4aafazftPfG/VNOlD2eleL9B8K6dIOhg0jw1atIg/3bjWZ1+oNH2kh/ZPaPDiZAqmZnfeGgQyg+1BR3Nh/wAey0AcV8R4d0ruPXNAHxlfaba+Fvjz8U/CV7DI1trngrwz47sYwOHfQ7yXRdaf/eOnjTc+0orJ/C12LTvY9s/Zn1+efwbY6dqMxa6sUbT7wk/8trd2gkP4mMn8RWqd1czXY9Wk7UDGnoaAI6ACgAoAKACgB0fegD8rP+Don9m7W/GvwJ8E/tYeFtOaaT4caxPpfibykyU03UGhEU7n+5FdQxx4HOb/AD0BI+X4hw3t6PN2/U/cPBzPVlWaui3ZVFp6r9WtfSJ+MGm+K3SJXSchh3U1+eVMH7x/ZuE4g5qKVzotJ+K+uWI2pqLHHrWE8LNo9bC53Qg7sm1b4nX+pxYub1m9s8VzRwU3K7Paq8UUVS5Ys52fxHmQkv1967I4XQ+bq57ebdyp52veLtXsvCHhPTJ9R1TVbyKz03T7VC0t1cSuI44kUcszOyqB3JruwuDvNHyvEHEkaODnJvRI/pG/Y7+BcP7N/wAAfh9+zzazRSyeEfDVvaalcW5zHPeld91Kv+y9w8zj2cV9rhYWaiuh/IGeYt4mpVryfxN/d0PqPR0KaTCrelfUUlamj8nxTviJMsVoc4UAOj70ASR96AJ4v6UAW4etAEs0ohtmcnHFAHj/AMQGt/FPxH0Lwvd3EUds+tWJu5JWARIoJTqcxYngL5enKhJ7TD1qJa2Q11Z4/wDsU3Nz4o+Bdj8W7+1aK4+Iurav46dH+9EuualcX9vE3ulg2nL7BQKcdW2N9D33w9DgCqZmtzu/DiEFeKCjtbEYtloA5f4gWu8M2M8UAfJf7TMemfDr4u/Dj46a1AG0fS/FjeHfGW5tofQPEUcek3G8ngRRX6aLO5PAUOah2UvUcfhsTfAjUNT+HfxL1r4YeI7kvdW8xkd3482aFhaXLDPPzGOG4+l4D3ohe1uwnufSVvOLm2jmBzuXk1YDj0NAEdABQAUAFABQA6PvQByHxj8B+FPiJ4N1bwP498OW+r+H/EGmTadrml3Skx3VtKhjkjbBBAKsRkEEZyCCBXHi6alHXqe5k2KnQrJwdpJ3R/N9/wAFPf8AglP8Zf8Agnd48u/EeiWl/wCJPhNqF5/xTvjJIt7WQdvkstQ2DENwuQqyYWOcYZMN5kUXxOLwDpzutj+nuFuNKOY4eNOo+Wot13815fiuvRv5QTWGI4avOdBH3Mc1dtxRrLEcsfzo+rotZs31BdQurqeOztInlmmkWOGGJSzSOTgKoHJJPAA9aqGHuYV839nG8mfrl/wRq/4JK+Jvg1rFh+2R+1j4YksvE8cJfwH4Kvo8TaWXUg313GfuXG1iI4W5h3F3AlCCP1MPh401d7n5TxNxLLMJPD0Ze4t33/r8fQ/VL4deHp5bgXU6Zd2yxxXvYOi3K5+S5zjYqPKtkeqLGIYFiHRQBXvJWVj4KUnKTYUyQoAdH3oAkj70ATxf0oAtw9aAKXibUEtLIq0gX5ecngfWgD5K/aj17XdX+C/i+28J3Ji17x9DD4B8IOudy6j4kmitWmUjkNaaXD9sPTCNIazv7zfYa2PWPDGjaHo2m22keF7RYNMtoY4NLhQYEdnFGsNsoHbEEcQx7VcNEKTO30G3wF4/SmJHceHYemBQM7C2XbCo9qAMbxja+db78fw0AfP/AO0V8K/CvxZ+HWvfDXxwj/2L4h0e60rWHi4eO1uIzFJKp6hosrOuOd8CVMldAmlI+e7X4geM9c+H3hX9oTxtFnxn4av5/DXxYhgXka/pS/ZNSbGOFu7NIdQhUfejghP8QqdpJ9xtOx9Z/DfxJa65o0TW9ysqNGGjkVshgRkEexFaCOlPQ0AR0AFABQAUAFADo+9ADbq2ju4Gt5Rww9OlKSUlZl05ypzUkef+NvBKXFjd6NqOl299p19A8F7p97brNBcROCHjdGBV0YEgqQQQeQa8nEYa9z63Lsyi7NOzXVbnwf8AtC/8ED/+CdHxo1mfxDpHgTxF8OL+d2kn/wCEB1VYbSSQ9/stxFPFEo4+SBYV44A5rxqmFpt6qx9/l/FOaUIcsZqS89/0/G55Dpv/AAbSfsfWuoedrf7RfxLu7UHm3tI7G3kI9PMa2kH/AI5WH1amv6Z7D4uzFrSKT+X/AAD6f/ZY/wCCaP7Gf7H1/Dr/AMC/gbA3iOFcJ4u8STtf6ipwQWjkkytuSCQfISHIODmtYUUtIo8fG51isXf21TTsv6/O59H+H/Bt3eXH2m63SOe5HT2HpXfRwrbuz5fGZnGMbI9L8M6BHpNuHZfmKjHtXt0KXs46nw+OxbxE7Gm/Sug4BtABQA6PvQBJH3oAni/pQBZR1RS7dBQB5d8dPGUEGmHRnujGLwOtxJH96K2VS88gx3EYKj/adB3pSfKrhvoeJ3NjdfEH9qKx8J3FsEsvg/pcl7rioTtPjPXrXiHOcb9N0PcisOP+JnD3FRy2SRXme1aTArzDCgAdAOwrQhnYaFbdOKAR23h+3xt4oGdMo2qB6CgCrrVv59kw9KAPLvGOlht6lMg5GCKBNXR8veM9Atvhj+0GU1O7Wz8KfGT7D4e1e/lXdFo/jG1BHh/U5ODtS8gRtMmfrJLa2iH/AFlZ2WsS07q5rfsy+N7/AMAeIbv4K+JLeSzuNHZzptvM3zLarIUa3J/ia2k/dE94/Jf+OqjLmRL0Z9M2l1He2q3EbA7hzj1qgHUAFABQAUAFADo+9ADqAGT28NynlzoGFJpSVmVCcoO8TH1LwPZ3RLRAc9jXLPCpnp0c0qQ3Mt/hqC2fIB/CsHgjvWdWW5NZfD2KFvnRRg1pDCJGFXOJS2N2w0Sy09P3cYJx1xXVGnGJ5dbFVar1ZYrQ5hr9KAG0AFADo+9AEkfegCeL+lAGf4r1+HSbF90oUgEsWOAOPX2oA+cPG/xk0nwh4e179pTxNo82q6doMdsNA0GA4m12+lnWPSdMhH/PW9vWifoQI0i3gKSah6y9BpfiaH7PPwt134V/DuHSPG2sQar4q1C+u9W8ba1brhNS169l8/UZ09IhLtt4l6LBaQgcUQV9RyfQ9V0K06cfWtGZ7nY6HanIJFIo7TQbXbg46UAbFADZEEkZQ9xQBxHjDS8l/loA8S+PHwk8J/FjwHrPw78c6XNdaRrenyWWow2shSbynIYSQuOY54pEjmicEFZYUORzSkroUXZngF3ffEDx5oF5qvifV7T/AIXD8J5LODxpexoYoNfs5Iymm+Jo1H/Lpf26GG5VeIZo5Bj/AEUMYvZ86LaWx9Cfs9fGrSvH/hmG+h8yFyWhu7K44mtLhDtkgkHZ0bI9D1HBBrTToQj1UEMoZTkEZBoGFABQAUAFADo+9ADqACgCSgAoAjPU0AB6GgCOgBr9KAG0AFADo+9AEkfegBuoalBpdqbiZwPl4zQB4P8AFLxdrHxQ8Xx/CPwjbvdyXEqJqaRPjfvG5LTd/CXALyN/BCGJwXWpk7aLcLXZwvhUWfx8+L9p4o8PX/2r4efC3Vry28G30R/deJvFgVrXUvEK44a3skaTT7I8gyvcSDekUbVNvslbK57ZpdkmUhgiCRxqFRFHAA4AH4VotCGdXo1nghcUAjrtDs+V+X8KBnX6XB5UOaALVABQBk+JdPWeEyBeo5oA828T6R975fpiglo8D+Onww8cx6/pPxm+Bwso/H3haO4i0e21KTZY+ItPuGVrzw9fkgj7LdlVaOQg/Z7pY5cMrOtS1yu5cXdWZ5pZeItN0SKy/ag/Z5sNSuPCWtXLWGv+GLuMpqOkX8HyT6RdxE5h1K0YMiBj+/iUIGfELNKaho9vyG03tufT3wg+L3h7x/4bs9Z0jV4ru0vIRJbXETZDqe47g9iDyCCOoxWjViE7neAhgGUggjII70DCgAoAKAHR96AHUAFAElABQBGepoAD0NAEdADX6UANoAKAHR96AGXeoW2nQNPcuAMcDNAHhfx6+PV1aXS+DPCEiza1doGjBjLpZxFtv2iVRyRn5UjHzSvhRxuIUmoq7FvojzTxFpeu/b7z9k34Y65f2PiXULKOX4w+NLO4BuvCOk3YD/2bbyjg67qSD7wx9lgJm/dqkHmZ6rXqWkvke0eD/CWgeCvDmn+D/CegWel6ZpdhDY6Xpenx7bextYUCQ28Q7IijA7klmPzMa0irEt9TrdG08KAcc+lMnc6vRrHkcdaCjrtEsfu8UAdDGgjQIO1AC0AFADJ4VniMbDqKAON8T6Ny3y0Aef8AiXQ0lV45IgyspVlZcggjBBFBL0Z4J8Uvhl408DeOL/43fBjwvDr9/rVpFYfET4e3l0Ibbx/YRjbEBIxCwazbgAWt2xUTKBBMwbypVhrl0exqnzHF+G71fC+nxftDfsya5d+JfAutalLDqulXkRtb2y1BG2z2d5DJtNjqsTfLIkgRLggE7JDudRfs9Ht+RMld3W59G/Bz46+HPH2iRahp1/5sTMY5FdSkkMi8NHIjANHIp4ZWAII5FaCPSIZ4bhPMhkDD2oAfQAUAOj70AOoAKAJKACgCM9TQAHoaAI6AGv0oAbQAUAUtX8Q2OiQNLPICwHTNAHgfxm/aD1nUNWfwJ8NrVb/WnZUlJRnh0/fwjTBOXkb/AJZ26/PIf7qhnClJRWob7HCwN4l+Gfiy6+Enwe1K21b4x3Iju/FXijVbdb2x+HFvMny39+q/u7rVpEO2z01OFBVmCxAtLH96W5SXRbHqXwj+EvhX4PeEIvCXhaG8dPtU17e3+q3X2m/1O+nbdc6heznm4vJ3+aSToBiNMIozST3e4mzutJ09nYMy9ashnUaTp/TikNI6nRtP5GVoGdVpdoIYwxH0oAuUAFABQAUAUdY09bqEsF5xzQBw/iLQ8Z+T9KAOG8RaAkiOkkCurgq6MuQwPUEdxQTseM/Ef4PeMNE8a33xv+Aev6fo3jG9tY7fxJZa9G8uheNbWNSqWmtQqCd6qSkWpRgzwAgSCaLepi3L6GialuZXw0uvBHxT8Z6hb/Dmx1bwJ8R9Ks45/FHwx8QKJNTtYPurMgVtmtabn5Yr22ZnUFFLBt0SpaLTYTR7p4B1vWPIt4dUgWGSVf3UkUwlt7gdzFKOGH+ycMO61aaYtTv7OI3SAPGVb6UwLX9jSY3Dke1AANImHQH8qAD+yZs9/wAqAFGlS/3aAHDSpz2NACnSph0U0ANOlSHtQA06VL/kUANOjzHotACHRpzwVP5UAMk0swjLnp2oAxdf1CTT7V5AVjRRzIxwB+NAHlvjDQPH3jmWTTdNnm0q08hpri6YrHceQAS0g8z5LSIAH99Lzx8qkkGpctbILdzx3wt4sm8cQt4P/Yj1GCw0NZprfV/jwtktzDvPFxb+F4Z8jUbon5ZNWnzbRnkGckxpOz7sqySPU/hV8JfA/wAG/CNv4J8BaKbOxguJblhLdPcz3V3Kcz3lzcSZku7uViWkuJCXckgbV+WqUbavcTdzs9O09pnDOtXsQ3c6PStN4Hy0hpHTaTpucfLQM6nR9OwAdvSgDYVQo2gUALQAUAFABQAEAjBoAyNc0dJlLquaAOK13Qjlvk/SgDkNY0JlYui4I6UE7Hmnxc+BPgP4uadZWPi7S50utGujd+HNZ0vUJLDUtCuj1udPvYf3tnIf4guY5AWEkbhjUuNndFKRg6L8Zf2j/gJcSW3xf8P6j8TPDyjc/jvwf4eibxBBEvOdZ0GIiPU1UY3Xml4mIUL5EfzGpur66Mq19j3r4I/tKfBf4yeDx43+H/iKx8QaIkphn1vwrcNf29rKBzDcwgfarCZeS8U8YEXRnzmqu1uSeo6FceGfEWmx6z4a1u01Czkz5d3Y3KzRNjrh0JB/OqTTAvjT7fHAH5UAINMtuuBQAo023HQLQAv9mw/3RQAf2bB0wKAEOmW56gUAJ/Zdt6CgA/su2z0FADX0u2J2lsZ7YoAwNf8AEvgTRNROg3WqC41PYHGkafE1zd7T0YwxguqZx87AIMjLCldIDwD4wfttfDXwr4yu/hf4D0K+8YePbRW8zwH4FkttS1aw4Pz6ldF/7P0KIEAl7iUuyMTGC421Lemug0rnmmofCL4lftGAXH7Vmq6RL4aa4+0W/wAIvCl1cS+HmkyCJdWvJdlx4kmGE4dYbLhT5cpUNQrvbRD0R61aWUVrGkFun3IkijARVCxqMKiqoCoijoigKvYCqUUtiWzT0/S3kYM6mmS9TodM0zoNtA0jotL0vp8tAzpdJ0vplf0oA3oIVhTaKAH0AFABQAUAFABQAjKGG1hwaAMfWdEWUF0XI+lAHI6zoHXEdAHK6v4f3Z+TH4UE2Oe1DRyAFuIA6q4ZcjlWHRh6EdiORRa+g72POPiH+zR8MfH/AIv/AOFnfYL7Q/GaRCKHx54R1ibRtfVB0R762+a6jHeK7S5jbGCuKnla2Lv3MiQftd/Dq/fVv7X8J/FOLnzL/W3k8EeKWQDAL6vpSyWF4F7RzW9qG/iPNT6oLI2bb9vPX/Atp9o+Ktj8TvAsYUbrn4ifCw+INMY9/L1fwtI9uiD+/cHdjkiha7MLNHZfDv8Ab50H4oSR2nwt+JHwk8dXBXc1r4J+MNjcXYGcfNaXMULxH/ZaQketO810Fod9c/Hb4w6SoOp/sy+OiCPv2dtpl0h+hg1Fyf8Avmjml2BJPqU5P2pPGcLFJf2b/iQDnt4Skb/0FyP1pc/kx8vmN/4aq8W44/Zx+JRPt4Nn/qaOfyYcvmOi/ag8f3TiKy/Zm+JTljwT4YWMfiZp4x+eKfO77MOXzDXv2g/iroelnWtd+DV94esud194v8Q6RpcCgdSW+2TMBjvso5pdhWR5Xq3/AAUx+Fh1P+wdO/aM+GuoajghdF+G8upfELUd391rXRYIjCc8fMSvPJo94NLmLrP7Sf7R/js/2f4F+APjlxMhI1H4weJLXwfp0YP/AC0i0zSBPq10COsNxGgIyCy80rrvcdu5mN8C/iv8StMbRvjx8dr6fQppC83gP4Z6WfBvh6QsOfO+zTSapfKedyTXcKPk7o+1NJ9NA907/wAB/DXwH8MfCVt4D+H/AIO0jQ9Ds23Wuh6HpcVlYwvnO5YIlCls5PmPvk55c01FLUV2dDDbTXDcA/U1dibmrp2inIJX60hbm7p2kdPl4oGkb2maQePkoGdHpek9PkoA3ba2S3TAHPc0ASUAFABQAUAFABQAUAFAAQGGCMg0AZup6LHcKWRRQBzOreHSM/u/0oA5vU/D2cgx0Cauc/qHhwgkqhz7UC2MubTrm3bgHj0pjuVEtY7a6N7bI1vcN1ubZ2ilP/A0Ib9alxT3Q0+xzfxE+C3wl+LsRg+K/wAM/DXimM/w+KPC9hqhz677yCVwf+BUuVDUmjgh+wB+x5a3AutD/Zx8H6PIDkS+HrK70h/xOm3VsP0FHK11C5ctv2Lvgfajbax+L7dcYCWXxe8YQoB1wFGs4Ayc4FFpd/wHddiVf2OvgyOHu/Hb/wDXT40eMW/nrNFpd/wDm8itP+xF+z9ek/2voGu6mrfej1r4meLL1H9mWbWGVh7EYotLuHMuw7Rf2Ef2NNBvE1Ow/ZV+G/2uPBS8uvBNpfTAjGD5l8tw+eAc7qOXzDmPUtN0u00jTV0XS1a1slAH2GyItrcj0MEISIj224o5IiuyW1tLWyi+z2FpHCmc+XDGFGfXAqhFiK0mlOAtFhXL1pojMcuM0CubFjomMHbQM2bDRj120DNzTtFPHy0Ab2m6PgA7f0oA14YEhXCigB9ABQAUAFABQAUAFABQAUAFABQBBdWMNyuGUA0AY+peHAwJ2cetAGBqHho/88/0oAxb7w3yfkoFZGTeeGB/zy/SgTRnT+GmB+VSKYe8VZNBuE+7n8RS0DmZGdHux/D+lAcwz+zLv/nnTsg5kOXSbo/w/pSHcemi3Ddc/lRoLmLEXh1z94E0wuy5beHQP4P0pBZmlaaAB0i/OgdjStNB6fJn8KBmtZ6Fk/coA2LHQtoA2UAbFnpSQgFxj2oAuKoUYUUALQAUAFABQAUAFABQAUAFABQAUAFABQAYzwaAIJ9Pt5+q4oAz7rw4j5KqDQBmXXhbk/u/0oAz7jwsc/6r9KAKknhUj/ll+lAEL+FTn/V0BYT/AIRQf88KBWQf8Ir/ANMaAskOTwuc/wCroGTReGCD/q/0oAtQeGiONn6UAXrbw5jGY/0oA0bbw9tAJSgDQt9JhiHzAfhQBZSNEGFUCgB1ABQAUAFABQAUAFABQAUAFABQAUAFABQAUAFABQAUABAPBFADGt4W+9GKAGGwtW6x0AN/sy0P/LOgA/syz/550AH9mWf/ADzoAP7MtP8AnnQAo0+1HSOgB62luvSMUAPVEX7qgfhQAtABQAUAFABQAUAFABQAUAFABQB//9k=;" vertex="1" parent="7">
                    <mxGeometry x="560" y="46.93000000000001" width="94" height="273.07" as="geometry"/>
                </mxCell>
            </root>
        </mxGraphModel>
    </diagram>
</mxfile>